<svg xmlns="http://www.w3.org/2000/svg" xmlns:xlink="http://www.w3.org/1999/xlink" viewBox="0 0 899.27 243.12"><defs><style>.cls-1{font-size:195.55px;font-family:Raleway-Light, Raleway;}.cls-1,.cls-2{fill:#fff;}.cls-3{fill:url(#linear-gradient);}.cls-4{fill:url(#linear-gradient-2);}.cls-5{fill:#91c499;}</style><linearGradient id="linear-gradient" x1="30.78" y1="146.94" x2="138.52" y2="93.59" gradientUnits="userSpaceOnUse"><stop offset="0" stop-color="#252323"/><stop offset="0.5" stop-color="#2f4858"/><stop offset="0.6" stop-color="#324c5a"/><stop offset="0.69" stop-color="#3b5760"/><stop offset="0.77" stop-color="#496a6a"/><stop offset="0.86" stop-color="#5e8477"/><stop offset="0.94" stop-color="#79a589"/><stop offset="1" stop-color="#91c499"/></linearGradient><linearGradient id="linear-gradient-2" x1="61.95" y1="209.9" x2="169.69" y2="156.54" xlink:href="#linear-gradient"/></defs><title>Asset 20</title><g id="Layer_2" data-name="Layer 2"><g id="Layer_1-2" data-name="Layer 1"><text class="cls-1" transform="translate(270.2 195.74)">Sabblo</text><circle class="cls-2" cx="121.56" cy="121.56" r="121.56"/><path class="cls-3" d="M131.69,35.88a13.75,13.75,0,0,0-13.74,13.74v29.5H35.12v58.72a32.4,32.4,0,0,0,2.36,12,45,45,0,0,0,5.86,10.59,65.42,65.42,0,0,0,8.33,9,97.07,97.07,0,0,0,8.93,7.27q4.09,2.89,8.54,5.47t6.32,3.49q1.87.92,3,1.41l.63.31-.25-.11,1.46.69h0l1.46-.69-.25.11.63-.31q1.13-.49,3-1.41t6.32-3.49q4.44-2.57,8.54-5.47a97,97,0,0,0,8.93-7.27l.92-.85h0a64.3,64.3,0,0,0,7.4-8.15c.25-.33.49-.66.73-1a80.56,80.56,0,0,0,5.16-8.37,29.61,29.61,0,0,0,2.36-5.91v-24l-9.07,2-3.78.82L57.49,135.87l.15-7.05,55-26.2,8.6-4.1,4.27-2V88.2L118,91.75h0l-5.38,2.56L50.24,124l-.45,21.15,62.82-13.54,5.35-1.15v7.35a24.75,24.75,0,0,1-1.84,9.27,39.48,39.48,0,0,1-3.52,6.9q-.65,1-1.35,1.94a58.21,58.21,0,0,1-7.38,8,90,90,0,0,1-8.23,6.71c-2.53,1.79-5.21,3.51-8,5.1-3.51,2-5.13,2.89-5.87,3.25l-1.53.74L78.75,179c-.74-.36-2.35-1.22-5.86-3.25-2.75-1.59-5.43-3.31-8-5.1a90.11,90.11,0,0,1-8.23-6.71,58.23,58.23,0,0,1-7.38-8,37.72,37.72,0,0,1-4.87-8.83,24.75,24.75,0,0,1-1.84-9.27V86.61h71.54l3.77-1.79h0l7.49-3.56V49.63a6.26,6.26,0,0,1,6.25-6.25h.14l.16-7.49Z"/><polygon class="cls-4" points="128.87 183.34 125.58 184.84 109.11 192.34 109.18 188.98 122.11 180.1 125.36 177.88 125.36 173.93 125.37 167.39 117.88 167.39 117.88 173.93 101.77 184.98 101.37 204.1 128.69 191.65 128.87 183.34 128.87 183.34"/><path class="cls-5" d="M209.55,148.61l.45-21.15L143.67,92.34l1.76-42.13A13.75,13.75,0,0,0,132,35.89l-.16,7.49h0a6.26,6.26,0,0,1,6.12,6.52L136.19,92l-.2,4.72L140.17,99l62.25,33-.15,7.05-58.32-15.18-9-2.34-.39,9.27-1.81,43.37L132.6,178l3.15,2.37,12.55,9.42-.07,3.36L132.08,185l-3.21-1.63-.18,8.31,26.77,13.59.4-19.11L140.24,174.4,142.06,131Z"/></g></g></svg>