<svg xmlns="http://www.w3.org/2000/svg" xmlns:xlink="http://www.w3.org/1999/xlink" viewBox="0 0 174.88 169.36"><defs><style>.cls-1{fill:url(#linear-gradient);}.cls-2{fill:url(#linear-gradient-2);}.cls-3{fill:#91c499;}</style><linearGradient id="linear-gradient" x1="-4.35" y1="111.06" x2="103.39" y2="57.7" gradientUnits="userSpaceOnUse"><stop offset="0" stop-color="#252323"/><stop offset="0.5" stop-color="#2f4858"/><stop offset="0.6" stop-color="#324c5a"/><stop offset="0.69" stop-color="#3b5760"/><stop offset="0.77" stop-color="#496a6a"/><stop offset="0.86" stop-color="#5e8477"/><stop offset="0.94" stop-color="#79a589"/><stop offset="1" stop-color="#91c499"/></linearGradient><linearGradient id="linear-gradient-2" x1="26.83" y1="174.01" x2="134.57" y2="120.66" xlink:href="#linear-gradient"/></defs><title>Asset 24</title><g id="Layer_2" data-name="Layer 2"><g id="Layer_1-2" data-name="Layer 1"><path class="cls-1" d="M96.56,0A13.75,13.75,0,0,0,82.82,13.74v29.5H0V102a32.4,32.4,0,0,0,2.36,12,45,45,0,0,0,5.86,10.59,65.42,65.42,0,0,0,8.33,9,97.07,97.07,0,0,0,8.93,7.27q4.09,2.89,8.54,5.47t6.32,3.49q1.87.92,3,1.41l.63.31-.25-.11,1.46.69h0l1.46-.69-.25.11.63-.31q1.13-.49,3-1.41t6.32-3.49q4.44-2.57,8.54-5.47a97,97,0,0,0,8.93-7.27l.92-.85h0a64.3,64.3,0,0,0,7.4-8.15c.25-.33.49-.66.73-1A80.56,80.56,0,0,0,88,115.21a29.61,29.61,0,0,0,2.36-5.91v-24l-9.07,2-3.78.82L22.36,100l.15-7.05,55-26.2,8.6-4.1,4.27-2V52.32l-7.49,3.55h0l-5.38,2.56L15.12,88.15l-.45,21.15L77.49,95.76l5.35-1.15V102A24.75,24.75,0,0,1,81,111.23a39.48,39.48,0,0,1-3.52,6.9q-.65,1-1.35,1.94a58.21,58.21,0,0,1-7.38,8,90,90,0,0,1-8.23,6.71c-2.53,1.79-5.21,3.51-8,5.1-3.51,2-5.13,2.89-5.87,3.25l-1.53.74-1.54-.74c-.74-.36-2.35-1.22-5.86-3.25-2.75-1.59-5.43-3.31-8-5.1A90.11,90.11,0,0,1,21.58,128a58.23,58.23,0,0,1-7.38-8,37.72,37.72,0,0,1-4.87-8.83A24.75,24.75,0,0,1,7.49,102V50.73H79l3.77-1.79h0l7.49-3.56V13.74a6.26,6.26,0,0,1,6.25-6.25h.14L96.86,0Z"/><polygon class="cls-2" points="93.74 147.46 90.46 148.95 73.98 156.46 74.06 153.1 86.99 144.22 90.24 141.99 90.24 138.05 90.24 131.51 82.75 131.51 82.75 138.04 66.65 149.1 66.24 168.21 93.56 155.77 93.74 147.46 93.74 147.46"/><path class="cls-3" d="M174.43,112.72l.45-21.15L108.55,56.45l1.76-42.13A13.75,13.75,0,0,0,96.86,0L96.7,7.49h0A6.26,6.26,0,0,1,102.82,14l-1.76,42.13-.2,4.72L105,63.07l62.25,33-.15,7.05L108.82,87.9l-9-2.34-.39,9.27-1.81,43.37-.16,3.94,3.15,2.37,12.55,9.42-.07,3.36L97,149.09l-3.21-1.63-.18,8.31,26.77,13.59.4-19.11-15.62-11.72,1.81-43.37Z"/></g></g></svg>