<svg xmlns="http://www.w3.org/2000/svg" xmlns:xlink="http://www.w3.org/1999/xlink" viewBox="0 0 679.33 574.69"><defs><style>.cls-1{fill:#c1e5c4;}.cls-2{fill:#91c499;}.cls-3{fill:url(#linear-gradient);}.cls-4{fill:url(#linear-gradient-2);}.cls-5{fill:url(#linear-gradient-3);}.cls-6{fill:url(#linear-gradient-4);}.cls-7{font-size:195.55px;fill:#252323;font-family:Raleway-Black, Raleway;}.cls-8{letter-spacing:0em;}</style><linearGradient id="linear-gradient" x1="350.66" y1="176.81" x2="336.44" y2="176.81" gradientUnits="userSpaceOnUse"><stop offset="0" stop-color="#2f4858"/><stop offset="1" stop-color="#252323"/></linearGradient><linearGradient id="linear-gradient-2" x1="428.7" y1="169.57" x2="332.72" y2="169.57" xlink:href="#linear-gradient"/><linearGradient id="linear-gradient-3" x1="337.23" y1="141.52" x2="327.52" y2="141.52" xlink:href="#linear-gradient"/><linearGradient id="linear-gradient-4" x1="338.47" y1="169.57" x2="246.23" y2="169.57" xlink:href="#linear-gradient"/></defs><title>Asset 15</title><g id="Layer_2" data-name="Layer 2"><g id="Layer_1-2" data-name="Layer 1"><path class="cls-1" d="M479,234.64,389.87,114.51l39.35-74.27a27.4,27.4,0,1,0-48.94-24.65L344,91.41l-149.6-.12-19,37.65,135.26,32.12-37.32,78-38.45,6-17.14,34,59.83,1.09,36.48,47.43,17.14-34-18-34.5,29.68-56c-1.15.08-2.31.13-3.46.13a66.73,66.73,0,0,1-9.68-.73,83.51,83.51,0,0,1-9.86-2.06,86.36,86.36,0,0,1-9.44-3.14,60.25,60.25,0,0,1-8.41-4.11l10.16-20.68a71,71,0,0,0,8.83,4.72,62.58,62.58,0,0,0,8.77,3.27,35,35,0,0,0,10,1.45q3.87,0,5.38-1a3.15,3.15,0,0,0,1.51-2.72,3.89,3.89,0,0,0-1.51-3.08,13.9,13.9,0,0,0-4.17-2.24q-2.66-1-6.11-1.94t-7.32-2.3a63,63,0,0,1-9.8-4.17,26.51,26.51,0,0,1-6.77-5.08,18.12,18.12,0,0,1-3.93-6.47,25.23,25.23,0,0,1-1.27-8.35,28.85,28.85,0,0,1,2.6-12.58A25.83,25.83,0,0,1,315.5,123a31.65,31.65,0,0,1,10.22-5.5,38.94,38.94,0,0,1,12.16-1.88,46.16,46.16,0,0,1,9.19.91,73.58,73.58,0,0,1,8.65,2.3,82.71,82.71,0,0,1,7.8,3q3.63,1.63,6.53,3.08l-10.16,19.48a66.17,66.17,0,0,0-7.5-3.87,68.72,68.72,0,0,0-7.32-2.72,26.43,26.43,0,0,0-7.92-1.27,11,11,0,0,0-5,1,3.38,3.38,0,0,0-1.87,3.27,3.77,3.77,0,0,0,1.09,2.78,10.31,10.31,0,0,0,3.14,2,39.22,39.22,0,0,0,5,1.75q3,.85,6.71,2.06a88.11,88.11,0,0,1,10.71,4,33.23,33.23,0,0,1,8.16,5.14,19.81,19.81,0,0,1,5.2,7.2,26.06,26.06,0,0,1,1.81,10.28,27.09,27.09,0,0,1-2.84,13,24.81,24.81,0,0,1-3,4.35l93.77,79Z"/><path class="cls-2" d="M479,234.64,389.87,114.51l39.35-74.27a27.4,27.4,0,0,0-11.89-37.3L358.48,119.78c1.75.65,3.45,1.31,5,2q3.63,1.63,6.53,3.08l-10.16,19.48a66.17,66.17,0,0,0-7.5-3.87q-1.7-.76-3.61-1.46L344,148.61l2.27.72a88.11,88.11,0,0,1,10.71,4,33.23,33.23,0,0,1,8.16,5.14,19.81,19.81,0,0,1,5.2,7.2,26.06,26.06,0,0,1,1.81,10.28,27.09,27.09,0,0,1-2.84,13,24.81,24.81,0,0,1-3,4.35l93.77,79Z"/><path class="cls-2" d="M329.77,202.56a83.51,83.51,0,0,1-9.86-2.06c-.62-.17-1.21-.37-1.82-.55l-40.46,80.32,36.48,47.43,17.14-34-18-34.5,29.68-56c-1.15.08-2.31.13-3.46.13A66.73,66.73,0,0,1,329.77,202.56Z"/><path class="cls-2" d="M339.81,182q3.87,0,5.38-1a3.15,3.15,0,0,0,1.51-2.72,3.89,3.89,0,0,0-1.51-3.08,13.9,13.9,0,0,0-4.17-2.24q-2.66-1-6.11-1.94c-.63-.18-1.29-.38-1.94-.58l-4.84,9.6c.56.18,1.11.36,1.69.53A35,35,0,0,0,339.81,182Z"/><path class="cls-3" d="M345.19,181a3.15,3.15,0,0,0,1.51-2.72,3.89,3.89,0,0,0-1.51-3.08,13.9,13.9,0,0,0-4.17-2.24c-1.19-.43-2.51-.86-3.93-1.3v10.26c.9.07,1.81.11,2.72.11Q343.68,182,345.19,181Z"/><path class="cls-4" d="M395.53,91.31H337.09v24.31l.79,0a46.16,46.16,0,0,1,9.19.91,73.58,73.58,0,0,1,8.65,2.3,82.71,82.71,0,0,1,7.8,3q3.63,1.63,6.53,3.08l-10.16,19.48a66.17,66.17,0,0,0-7.5-3.87,68.72,68.72,0,0,0-7.32-2.72,26.43,26.43,0,0,0-7.92-1.27h-.06v10c.75.26,1.55.51,2.42.76q3,.85,6.71,2.06a88.11,88.11,0,0,1,10.71,4,33.23,33.23,0,0,1,8.16,5.14,19.81,19.81,0,0,1,5.2,7.2,26.06,26.06,0,0,1,1.81,10.28,27.09,27.09,0,0,1-2.84,13,23.32,23.32,0,0,1-7.5,8.41,31.65,31.65,0,0,1-10.52,4.54,51.07,51.07,0,0,1-11.79,1.39q-1.17,0-2.36,0v44.59c4.45-2.11,0,0,2.64-1.29q1.62-.71,4.31-2t9.08-5q6.39-3.7,12.27-7.86a139.52,139.52,0,0,0,12.84-10.45,94,94,0,0,0,12-12.94A64.66,64.66,0,0,0,398.63,193a46.58,46.58,0,0,0,3.4-17.3V91.31Z"/><path class="cls-5" d="M330.25,140.74a3.77,3.77,0,0,0,1.09,2.78,10.31,10.31,0,0,0,3.14,2c.77.34,1.64.67,2.6,1v-10a11,11,0,0,0-5,1A3.38,3.38,0,0,0,330.25,140.74Z"/><path class="cls-6" d="M319.91,200.5a86.36,86.36,0,0,1-9.44-3.14,60.25,60.25,0,0,1-8.41-4.11l10.16-20.68a71,71,0,0,0,8.83,4.72,62.58,62.58,0,0,0,8.77,3.27,35,35,0,0,0,7.26,1.34V171.62l-2.18-.64q-3.45-1-7.32-2.3a63,63,0,0,1-9.8-4.17,26.51,26.51,0,0,1-6.77-5.08,18.12,18.12,0,0,1-3.93-6.47,25.23,25.23,0,0,1-1.27-8.35,28.85,28.85,0,0,1,2.6-12.58A25.83,25.83,0,0,1,315.5,123a31.65,31.65,0,0,1,10.22-5.5,38.75,38.75,0,0,1,11.37-1.85V91.31H272.15v84.42a46.59,46.59,0,0,0,3.4,17.3A64.67,64.67,0,0,0,284,208.24a94,94,0,0,0,12,12.94,139.56,139.56,0,0,0,12.84,10.45q5.88,4.16,12.28,7.86t9.08,5q2.69,1.32,4.31,2c2.64,1.29-1.82-.83,2.64,1.29V203.24a68.21,68.21,0,0,1-7.32-.68A83.51,83.51,0,0,1,319.91,200.5Z"/><text class="cls-7" transform="translate(0 528.93)"><tspan class="cls-8">S</tspan><tspan x="119.68" y="0">abblo</tspan></text></g></g></svg>