<svg xmlns="http://www.w3.org/2000/svg" xmlns:xlink="http://www.w3.org/1999/xlink" viewBox="0 0 239.61 258.67"><defs><style>.cls-1{fill:#fff;}.cls-2{fill:#c1e5c4;}.cls-3{fill:#91c499;}.cls-4{fill:url(#linear-gradient);}.cls-5{fill:url(#linear-gradient-2);}.cls-6{fill:url(#linear-gradient-3);}.cls-7{fill:url(#linear-gradient-4);}</style><linearGradient id="linear-gradient" x1="138.29" y1="139.56" x2="127.07" y2="139.56" gradientUnits="userSpaceOnUse"><stop offset="0" stop-color="#2f4858"/><stop offset="1" stop-color="#252323"/></linearGradient><linearGradient id="linear-gradient-2" x1="199.89" y1="133.85" x2="124.13" y2="133.85" xlink:href="#linear-gradient"/><linearGradient id="linear-gradient-3" x1="127.69" y1="111.71" x2="120.03" y2="111.71" xlink:href="#linear-gradient"/><linearGradient id="linear-gradient-4" x1="128.67" y1="133.85" x2="55.85" y2="133.85" xlink:href="#linear-gradient"/></defs><title>Asset 13</title><g id="Layer_2" data-name="Layer 2"><g id="Layer_1-2" data-name="Layer 1"><polygon class="cls-1" points="87.86 86.19 168.25 86.19 163.28 157.83 128.05 181.48 89.72 157.83 87.86 86.19"/><path class="cls-2" d="M239.61,185.22,169.24,90.39,200.3,31.76A21.63,21.63,0,1,0,161.68,12.3L133.06,72.16,15,72.06,0,101.78l106.77,25.35-29.46,61.6L47,193.51,33.42,220.38l47.22.86,28.8,37.44L123,231.81l-14.23-27.23,23.43-44.22c-.91.06-1.82.1-2.73.1a52.68,52.68,0,0,1-7.64-.57,65.92,65.92,0,0,1-7.78-1.62,68.17,68.17,0,0,1-7.45-2.48,47.56,47.56,0,0,1-6.64-3.25l8-16.33a56,56,0,0,0,7,3.72,49.4,49.4,0,0,0,6.92,2.58,27.59,27.59,0,0,0,7.88,1.15,8,8,0,0,0,4.25-.81,2.49,2.49,0,0,0,1.19-2.15,3.07,3.07,0,0,0-1.19-2.44,11,11,0,0,0-3.29-1.77q-2.1-.76-4.82-1.53t-5.78-1.81a49.72,49.72,0,0,1-7.73-3.29,20.92,20.92,0,0,1-5.35-4,14.31,14.31,0,0,1-3.1-5.11,19.92,19.92,0,0,1-1-6.59,22.78,22.78,0,0,1,2.05-9.93,20.39,20.39,0,0,1,5.59-7.16,25,25,0,0,1,8.07-4.34,30.73,30.73,0,0,1,9.6-1.48,36.44,36.44,0,0,1,7.26.72,58.08,58.08,0,0,1,6.83,1.81,65.29,65.29,0,0,1,6.16,2.39q2.86,1.29,5.16,2.43l-8,15.37a52.23,52.23,0,0,0-5.92-3.06,54.24,54.24,0,0,0-5.78-2.15,20.86,20.86,0,0,0-6.25-1,8.69,8.69,0,0,0-4,.76,2.67,2.67,0,0,0-1.48,2.58,3,3,0,0,0,.86,2.2,8.14,8.14,0,0,0,2.48,1.58,31,31,0,0,0,4,1.38q2.34.67,5.3,1.62a69.55,69.55,0,0,1,8.45,3.15,26.23,26.23,0,0,1,6.44,4.06,15.64,15.64,0,0,1,4.11,5.68,20.57,20.57,0,0,1,1.43,8.12A21.38,21.38,0,0,1,153,149.15a19.58,19.58,0,0,1-2.36,3.43l74,62.36Z"/><path class="cls-3" d="M239.61,185.22,169.24,90.39,200.3,31.76a21.63,21.63,0,0,0-9.38-29.44L144.46,94.55c1.38.51,2.72,1,4,1.6q2.86,1.29,5.16,2.43l-8,15.37a52.23,52.23,0,0,0-5.92-3.06q-1.34-.6-2.85-1.15L133,117.31l1.79.57a69.55,69.55,0,0,1,8.45,3.15,26.23,26.23,0,0,1,6.44,4.06,15.64,15.64,0,0,1,4.11,5.68,20.57,20.57,0,0,1,1.43,8.12A21.38,21.38,0,0,1,153,149.15a19.58,19.58,0,0,1-2.36,3.43l74,62.36Z"/><path class="cls-3" d="M121.8,159.89a65.92,65.92,0,0,1-7.78-1.62c-.49-.13-1-.29-1.44-.43l-31.94,63.4,28.8,37.44L123,231.81l-14.23-27.23,23.43-44.22c-.91.06-1.82.1-2.73.1A52.68,52.68,0,0,1,121.8,159.89Z"/><path class="cls-3" d="M129.72,143.66a8,8,0,0,0,4.25-.81,2.49,2.49,0,0,0,1.19-2.15,3.07,3.07,0,0,0-1.19-2.44,11,11,0,0,0-3.29-1.77q-2.1-.76-4.82-1.53l-1.53-.45-3.82,7.58,1.34.42A27.59,27.59,0,0,0,129.72,143.66Z"/><path class="cls-4" d="M134,142.85a2.49,2.49,0,0,0,1.19-2.15,3.07,3.07,0,0,0-1.19-2.44,11,11,0,0,0-3.29-1.77c-.94-.34-2-.68-3.1-1v8.1c.71.06,1.43.09,2.15.09A8,8,0,0,0,134,142.85Z"/><path class="cls-5" d="M173.71,72.07H127.58V91.26l.62,0a36.44,36.44,0,0,1,7.26.72,58.08,58.08,0,0,1,6.83,1.81,65.29,65.29,0,0,1,6.16,2.39q2.86,1.29,5.16,2.43l-8,15.37a52.23,52.23,0,0,0-5.92-3.06,54.24,54.24,0,0,0-5.78-2.15,20.86,20.86,0,0,0-6.25-1h0v7.9c.59.2,1.22.4,1.91.6q2.34.67,5.3,1.62a69.55,69.55,0,0,1,8.45,3.15,26.23,26.23,0,0,1,6.44,4.06,15.64,15.64,0,0,1,4.11,5.68,20.57,20.57,0,0,1,1.43,8.12A21.38,21.38,0,0,1,153,149.15a18.41,18.41,0,0,1-5.92,6.64,25,25,0,0,1-8.31,3.58,40.31,40.31,0,0,1-9.31,1.1q-.93,0-1.86,0v35.2c3.52-1.67,0,0,2.08-1q1.28-.56,3.4-1.6t7.17-4q5-2.92,9.69-6.21a110.13,110.13,0,0,0,10.13-8.25,74.24,74.24,0,0,0,9.45-10.21,51,51,0,0,0,6.65-12,36.77,36.77,0,0,0,2.68-13.66V72.07Z"/><path class="cls-6" d="M122.18,111.1a3,3,0,0,0,.86,2.2,8.14,8.14,0,0,0,2.48,1.58c.61.27,1.3.53,2.05.79v-7.9a8.65,8.65,0,0,0-3.91.76A2.67,2.67,0,0,0,122.18,111.1Z"/><path class="cls-7" d="M114,158.27a68.17,68.17,0,0,1-7.45-2.48,47.56,47.56,0,0,1-6.64-3.25l8-16.33a56,56,0,0,0,7,3.72,49.4,49.4,0,0,0,6.92,2.58,27.65,27.65,0,0,0,5.73,1.06v-8.1l-1.72-.5q-2.72-.76-5.78-1.81a49.72,49.72,0,0,1-7.73-3.29,20.92,20.92,0,0,1-5.35-4,14.31,14.31,0,0,1-3.1-5.11,19.92,19.92,0,0,1-1-6.59,22.78,22.78,0,0,1,2.05-9.93,20.39,20.39,0,0,1,5.59-7.16,25,25,0,0,1,8.07-4.34,30.58,30.58,0,0,1,9-1.46V72.07H76.32v66.63A36.77,36.77,0,0,0,79,152.36a51,51,0,0,0,6.65,12,74.24,74.24,0,0,0,9.45,10.21,110.16,110.16,0,0,0,10.13,8.25q4.64,3.28,9.69,6.21t7.17,4q2.12,1,3.4,1.6c2.08,1-1.43-.65,2.08,1v-35.2a53.84,53.84,0,0,1-5.78-.54A65.92,65.92,0,0,1,114,158.27Z"/></g></g></svg>