<?xml version="1.0" encoding="UTF-8"?>
<svg width="899px" height="244px" viewBox="0 0 899 244" version="1.1" xmlns="http://www.w3.org/2000/svg" xmlns:xlink="http://www.w3.org/1999/xlink">
    <!-- Generator: Sketch 51.2 (57519) - http://www.bohemiancoding.com/sketch -->
    <title>icon-mobile</title>
    <desc>Created with Sketch.</desc>
    <defs>
        <path d="M368.7572,82.90765 C364.84618,78.4751612 359.631566,74.8901137 353.1132,72.1524 C346.594834,69.4146863 339.164008,68.04585 330.8205,68.04585 C318.565972,68.04585 309.635945,70.3598352 304.03015,74.987875 C298.424355,79.6159148 295.6215,85.9060436 295.6215,93.85845 C295.6215,98.0302042 296.371101,101.452295 297.870325,104.124825 C299.369549,106.797355 301.683534,109.11134 304.81235,111.06685 C307.941166,113.02236 311.949901,114.717109 316.838675,116.15115 C321.727449,117.585191 327.496117,119.019209 334.14485,120.45325 C341.575787,122.017658 348.257012,123.77759 354.188725,125.7331 C360.120438,127.68861 365.172096,130.13296 369.34385,133.066225 C373.515604,135.99949 376.709556,139.551946 378.9258,143.7237 C381.142044,147.895454 382.25015,153.110069 382.25015,159.3677 C382.25015,165.755699 381.011679,171.296227 378.5347,175.98945 C376.057721,180.682673 372.603039,184.593634 368.17055,187.72245 C363.738061,190.851266 358.458264,193.165251 352.331,194.664475 C346.203736,196.163699 339.48992,196.9133 332.18935,196.9133 C310.678742,196.9133 292.101678,190.199484 276.4576,176.77165 L283.30185,165.6253 C285.778829,168.232646 288.744641,170.709588 292.199375,173.0562 C295.654109,175.402812 299.499887,177.456066 303.736825,179.216025 C307.973763,180.975984 312.503959,182.34482 317.32755,183.322575 C322.151141,184.30033 327.23539,184.7892 332.58045,184.7892 C343.661672,184.7892 352.298377,182.801128 358.490825,178.824925 C364.683273,174.848722 367.77945,168.819324 367.77945,160.73655 C367.77945,156.434428 366.899484,152.81679 365.139525,149.883525 C363.379566,146.95026 360.739668,144.408136 357.21975,142.257075 C353.699832,140.106014 349.332593,138.248308 344.1179,136.6839 C338.903207,135.119492 332.841218,133.555108 325.93175,131.9907 C318.63118,130.295925 312.243277,128.535992 306.76785,126.71085 C301.292423,124.885708 296.664452,122.604314 292.8838,119.8666 C289.103148,117.128886 286.267701,113.837161 284.377375,109.991325 C282.487049,106.145489 281.5419,101.419745 281.5419,95.81395 C281.5419,89.4259514 282.74778,83.7224668 285.159575,78.703325 C287.57137,73.6841832 290.993461,69.5124916 295.42595,66.188125 C299.858439,62.8637584 305.073053,60.3216338 311.06995,58.561675 C317.066847,56.8017162 323.71548,55.92175 331.01605,55.92175 C340.27213,55.92175 348.517739,57.3231777 355.753125,60.126075 C362.988511,62.9289723 369.539371,66.8725246 375.4059,71.95685 L368.7572,82.90765 Z M429.18215,197.6955 C424.358559,197.6955 419.893546,196.880716 415.786975,195.251125 C411.680404,193.621534 408.095357,191.372731 405.031725,188.50465 C401.968093,185.636569 399.588925,182.279661 397.89415,178.433825 C396.199375,174.587989 395.352,170.448889 395.352,166.0164 C395.352,161.583911 396.394923,157.477402 398.4808,153.69675 C400.566677,149.916098 403.499898,146.656964 407.28055,143.91925 C411.061202,141.181536 415.558807,139.063099 420.7735,137.563875 C425.988193,136.064651 431.724269,135.31505 437.9819,135.31505 C443.196593,135.31505 448.47639,135.771329 453.82145,136.6839 C459.16651,137.596471 463.924846,138.900125 468.0966,140.5949 L468.0966,131.40405 C468.0966,122.408705 465.554475,115.271201 460.47015,109.991325 C455.385825,104.711449 448.346095,102.07155 439.35075,102.07155 C434.136057,102.07155 428.791077,103.114473 423.31565,105.20035 C417.840223,107.286227 412.299695,110.28463 406.6939,114.19565 L402.0007,105.3959 C415.167799,96.5309223 427.943605,92.0985 440.3285,92.0985 C453.104497,92.0985 463.14263,95.6835475 470.4432,102.85375 C477.74377,110.023953 481.394,119.93172 481.394,132.57735 L481.394,178.5316 C481.394,182.181885 483.023567,184.007 486.28275,184.007 L486.28275,195.74 C484.066506,196.131102 482.371756,196.32665 481.19845,196.32665 C477.8089,196.32665 475.169001,195.479275 473.278675,193.7845 C471.388349,192.089725 470.378017,189.743148 470.24765,186.7447 L469.85655,178.72715 C465.163327,184.854414 459.264294,189.547567 452.159275,192.80675 C445.054256,196.065933 437.395291,197.6955 429.18215,197.6955 Z M432.31095,187.5269 C439.220418,187.5269 445.575729,186.223246 451.377075,183.6159 C457.178421,181.008554 461.578252,177.553872 464.5767,173.25175 C465.750006,172.078444 466.629972,170.807382 467.216625,169.438525 C467.803278,168.069668 468.0966,166.798606 468.0966,165.6253 L468.0966,149.00355 C463.664111,147.308775 459.068732,146.005121 454.310325,145.09255 C449.551918,144.179979 444.695808,143.7237 439.74185,143.7237 C430.355403,143.7237 422.729029,145.67918 416.8625,149.5902 C410.995971,153.50122 408.06275,158.650651 408.06275,165.03865 C408.06275,168.167466 408.681985,171.100686 409.920475,173.8384 C411.158965,176.576114 412.853714,178.955282 415.004775,180.975975 C417.155836,182.996668 419.730552,184.593644 422.729,185.76695 C425.727448,186.940256 428.9214,187.5269 432.31095,187.5269 Z M560.0051,197.6955 C551.922326,197.6955 544.524092,195.674837 537.810175,191.63345 C531.096258,187.592063 525.849052,182.377449 522.0684,175.98945 L522.0684,195.74 L510.13985,195.74 L510.13985,52.9885 L523.43725,52.9885 L523.43725,115.1734 C528.000106,108.263932 533.475451,102.690813 539.86345,98.453875 C546.251449,94.2169371 553.682274,92.0985 562.15615,92.0985 C569.326353,92.0985 575.746847,93.5977017 581.417825,96.59615 C587.088803,99.5945983 591.912322,103.603333 595.888525,108.622475 C599.864728,113.641617 602.928314,119.31251 605.079375,125.635325 C607.230436,131.95814 608.30595,138.443817 608.30595,145.09255 C608.30595,152.262753 607.067479,159.041751 604.5905,165.42975 C602.113521,171.817749 598.724022,177.390868 594.4219,182.149275 C590.119778,186.907682 585.002938,190.688278 579.071225,193.491175 C573.139512,196.294072 566.784201,197.6955 560.0051,197.6955 Z M556.8763,185.9625 C562.482095,185.9625 567.598935,184.821803 572.226975,182.540375 C576.855015,180.258947 580.831158,177.195361 584.155525,173.349525 C587.479892,169.503689 590.087199,165.136449 591.977525,160.247675 C593.867851,155.358901 594.813,150.307243 594.813,145.09255 C594.813,139.74749 593.933034,134.598058 592.173075,129.6441 C590.413116,124.690142 587.936174,120.290311 584.742175,116.444475 C581.548176,112.598639 577.702397,109.535053 573.204725,107.253625 C568.707053,104.972197 563.78576,103.8315 558.4407,103.8315 C554.399313,103.8315 550.618718,104.515918 547.0988,105.884775 C543.578882,107.253632 540.319748,109.111338 537.3213,111.45795 C534.322852,113.804562 531.650362,116.509643 529.30375,119.573275 C526.957138,122.636907 525.001658,125.86345 523.43725,129.253 L523.43725,160.9321 C523.958719,164.452018 525.360147,167.743743 527.641575,170.807375 C529.923003,173.871007 532.660676,176.510906 535.854675,178.72715 C539.048674,180.943394 542.503356,182.703327 546.218825,184.007 C549.934294,185.310673 553.48675,185.9625 556.8763,185.9625 Z M680.65945,197.6955 C672.576676,197.6955 665.178442,195.674837 658.464525,191.63345 C651.750608,187.592063 646.503402,182.377449 642.72275,175.98945 L642.72275,195.74 L630.7942,195.74 L630.7942,52.9885 L644.0916,52.9885 L644.0916,115.1734 C648.654456,108.263932 654.129801,102.690813 660.5178,98.453875 C666.905799,94.2169371 674.336624,92.0985 682.8105,92.0985 C689.980703,92.0985 696.401197,93.5977017 702.072175,96.59615 C707.743153,99.5945983 712.566672,103.603333 716.542875,108.622475 C720.519078,113.641617 723.582664,119.31251 725.733725,125.635325 C727.884786,131.95814 728.9603,138.443817 728.9603,145.09255 C728.9603,152.262753 727.721829,159.041751 725.24485,165.42975 C722.767871,171.817749 719.378372,177.390868 715.07625,182.149275 C710.774128,186.907682 705.657288,190.688278 699.725575,193.491175 C693.793862,196.294072 687.438551,197.6955 680.65945,197.6955 Z M677.53065,185.9625 C683.136445,185.9625 688.253285,184.821803 692.881325,182.540375 C697.509365,180.258947 701.485508,177.195361 704.809875,173.349525 C708.134242,169.503689 710.741549,165.136449 712.631875,160.247675 C714.522201,155.358901 715.46735,150.307243 715.46735,145.09255 C715.46735,139.74749 714.587384,134.598058 712.827425,129.6441 C711.067466,124.690142 708.590524,120.290311 705.396525,116.444475 C702.202526,112.598639 698.356747,109.535053 693.859075,107.253625 C689.361403,104.972197 684.44011,103.8315 679.09505,103.8315 C675.053663,103.8315 671.273068,104.515918 667.75315,105.884775 C664.233232,107.253632 660.974098,109.111338 657.97565,111.45795 C654.977202,113.804562 652.304712,116.509643 649.9581,119.573275 C647.611488,122.636907 645.656008,125.86345 644.0916,129.253 L644.0916,160.9321 C644.613069,164.452018 646.014497,167.743743 648.295925,170.807375 C650.577353,173.871007 653.315026,176.510906 656.509025,178.72715 C659.703024,180.943394 663.157706,182.703327 666.873175,184.007 C670.588644,185.310673 674.1411,185.9625 677.53065,185.9625 Z M752.0352,52.9885 L765.3326,52.9885 L765.3326,172.6651 C765.3326,176.445752 766.375523,179.411564 768.4614,181.562625 C770.547277,183.713686 773.480498,184.7892 777.26115,184.7892 C778.695191,184.7892 780.38994,184.593652 782.34545,184.20255 C784.30096,183.811448 786.126075,183.289987 787.82085,182.63815 L790.16745,193.3934 C787.690471,194.436339 784.659476,195.283713 781.074375,195.93555 C777.489274,196.587387 774.393096,196.9133 771.78575,196.9133 C765.658486,196.9133 760.834968,195.185959 757.31505,191.731225 C753.795132,188.276491 752.0352,183.420381 752.0352,177.16275 L752.0352,52.9885 Z M848.05025,197.6955 C840.619313,197.6955 833.840314,196.294072 827.71305,193.491175 C821.585786,190.688278 816.273397,186.875091 811.775725,182.0515 C807.278053,177.227909 803.790779,171.622199 801.3138,165.2342 C798.836821,158.846201 797.59835,152.132385 797.59835,145.09255 C797.59835,137.922347 798.869412,131.143349 801.411575,124.75535 C803.953738,118.367351 807.473603,112.761641 811.971275,107.93805 C816.468947,103.114459 821.781336,99.268681 827.9086,96.4006 C834.035864,93.532519 840.74968,92.0985 848.05025,92.0985 C855.35082,92.0985 862.097227,93.532519 868.289675,96.4006 C874.482123,99.268681 879.827103,103.114459 884.324775,107.93805 C888.822447,112.761641 892.342312,118.367351 894.884475,124.75535 C897.426638,131.143349 898.6977,137.922347 898.6977,145.09255 C898.6977,152.132385 897.459229,158.846201 894.98225,165.2342 C892.505271,171.622199 889.017997,177.227909 884.520325,182.0515 C880.022653,186.875091 874.677673,190.688278 868.485225,193.491175 C862.292777,196.294072 855.481187,197.6955 848.05025,197.6955 Z M811.0913,145.2881 C811.0913,151.024262 812.06904,156.336651 814.02455,161.225425 C815.98006,166.114199 818.619958,170.416256 821.944325,174.131725 C825.268692,177.847194 829.179653,180.747823 833.677325,182.8337 C838.174997,184.919577 842.965925,185.9625 848.05025,185.9625 C853.134575,185.9625 857.925503,184.886986 862.423175,182.735925 C866.920847,180.584864 870.8644,177.651644 874.25395,173.936175 C877.6435,170.220706 880.31599,165.886058 882.2715,160.9321 C884.22701,155.978142 885.20475,150.633162 885.20475,144.897 C885.20475,139.291205 884.22701,133.978817 882.2715,128.959675 C880.31599,123.940533 877.6435,119.573294 874.25395,115.857825 C870.8644,112.142356 866.920847,109.209136 862.423175,107.058075 C857.925503,104.907014 853.134575,103.8315 848.05025,103.8315 C842.965925,103.8315 838.207589,104.907014 833.7751,107.058075 C829.342611,109.209136 825.43165,112.174948 822.0421,115.9556 C818.65255,119.736252 815.98006,124.136083 814.02455,129.155225 C812.06904,134.174367 811.0913,139.551938 811.0913,145.2881 Z" id="path-1"></path>
        <linearGradient x1="-4.48347107%" y1="73.027354%" x2="106.818182%" y2="37.9471331%" id="linearGradient-2">
            <stop stop-color="#252323" offset="0%"></stop>
            <stop stop-color="#2F4858" offset="50%"></stop>
            <stop stop-color="#324C5A" offset="60%"></stop>
            <stop stop-color="#3B5760" offset="69%"></stop>
            <stop stop-color="#496A6A" offset="77%"></stop>
            <stop stop-color="#5E8477" offset="86%"></stop>
            <stop stop-color="#79A589" offset="94%"></stop>
            <stop stop-color="#91C499" offset="100%"></stop>
        </linearGradient>
        <linearGradient x1="-143.345455%" y1="115.79951%" x2="248.436364%" y2="-29.5559793%" id="linearGradient-3">
            <stop stop-color="#252323" offset="0%"></stop>
            <stop stop-color="#2F4858" offset="50%"></stop>
            <stop stop-color="#324C5A" offset="60%"></stop>
            <stop stop-color="#3B5760" offset="69%"></stop>
            <stop stop-color="#496A6A" offset="77%"></stop>
            <stop stop-color="#5E8477" offset="86%"></stop>
            <stop stop-color="#79A589" offset="94%"></stop>
            <stop stop-color="#91C499" offset="100%"></stop>
        </linearGradient>
    </defs>
    <g id="Page-1" stroke="none" stroke-width="1" fill="none" fill-rule="evenodd">
        <g id="icon-mobile">
            <g id="Sabblo">
                <use fill="#000000" xlink:href="#path-1"></use>
                <use fill="#FFFFFF" xlink:href="#path-1"></use>
            </g>
            <circle id="Oval" fill="#FFFFFF" fill-rule="nonzero" cx="121.56" cy="121.56" r="121.56"></circle>
            <path d="M131.69,35.88 C124.103893,35.8855152 117.955515,42.0338932 117.95,49.62 L117.95,79.12 L35.12,79.12 L35.12,137.84 C35.1377587,141.953547 35.9386912,146.026085 37.48,149.84 C38.9475404,153.617777 40.9186982,157.179989 43.34,160.43 C45.8287386,163.684207 48.6176554,166.697442 51.67,169.43 C54.5001811,172.02791 57.4820931,174.455514 60.6,176.7 C63.3266667,178.626667 66.1733333,180.45 69.14,182.17 C72.1066667,183.89 74.2133333,185.053333 75.46,185.66 C76.7066667,186.273333 77.7066667,186.743333 78.46,187.07 L79.09,187.38 L78.84,187.27 L80.3,187.96 L81.76,187.27 L81.51,187.38 L82.14,187.07 C82.8933333,186.743333 83.8933333,186.273333 85.14,185.66 C86.3866667,185.046667 88.4933333,183.883333 91.46,182.17 C94.42,180.456667 97.2666667,178.633333 100,176.7 C103.118007,174.455645 106.099927,172.028035 108.93,169.43 L109.85,168.58 C112.545108,166.079866 115.020846,163.353209 117.25,160.43 C117.5,160.1 117.74,159.77 117.98,159.43 C119.868821,156.747668 121.59203,153.952462 123.14,151.06 C124.136693,149.180501 124.927928,147.19906 125.5,145.15 L125.5,121.15 L116.43,123.15 L112.65,123.97 L57.49,135.87 L57.64,128.82 L112.64,102.62 L121.24,98.52 L125.51,96.52 L125.51,88.2 L118,91.75 L112.62,94.31 L50.24,124 L49.79,145.15 L112.61,131.61 L117.96,130.46 L117.96,137.81 C117.947799,140.989503 117.323078,144.136874 116.12,147.08 C115.175679,149.489822 113.996673,151.800943 112.6,153.98 C112.166667,154.646667 111.716667,155.293333 111.25,155.92 C109.045253,158.811305 106.574456,161.489677 103.87,163.92 C101.26112,166.316695 98.5130047,168.557261 95.64,170.63 C93.11,172.42 90.43,174.14 87.64,175.73 C84.13,177.73 82.51,178.62 81.77,178.98 L80.24,179.72 L78.75,179 C78.01,178.64 76.4,177.78 72.89,175.75 C70.14,174.16 67.46,172.44 64.89,170.65 C62.017151,168.577058 59.2690474,166.336502 56.66,163.94 C53.955627,161.509593 51.4848364,158.831229 49.28,155.94 C47.2687796,153.227899 45.630813,150.258033 44.41,147.11 C43.2069217,144.166874 42.582201,141.019503 42.57,137.84 L42.57,86.61 L114.11,86.61 L117.88,84.82 L125.37,81.26 L125.37,49.63 C125.375506,46.1805035 128.170504,43.385506 131.62,43.38 L131.76,43.38 L131.92,35.89 L131.69,35.88 Z" id="Shape" fill="url(#linearGradient-2)" fill-rule="nonzero"></path>
            <polygon id="Shape" fill="url(#linearGradient-3)" fill-rule="nonzero" points="128.87 183.34 125.58 184.84 109.11 192.34 109.18 188.98 122.11 180.1 125.36 177.88 125.36 173.93 125.37 167.39 117.88 167.39 117.88 173.93 101.77 184.98 101.37 204.1 128.69 191.65 128.87 183.34"></polygon>
            <path d="M209.55,148.61 L210,127.46 L143.67,92.34 L145.43,50.21 C145.584008,46.5204537 144.247483,42.9240309 141.721352,40.230495 C139.195222,37.5369591 135.691832,35.9727277 132,35.89 L131.84,43.38 C133.521877,43.4161548 135.118423,44.1277177 136.269744,45.3542891 C137.421066,46.5808605 138.030259,48.2192019 137.96,49.9 L136.19,92 L135.99,96.72 L140.17,99 L202.42,132 L202.27,139.05 L143.95,123.87 L134.95,121.53 L134.56,130.8 L132.75,174.17 L132.6,178 L135.75,180.37 L148.3,189.79 L148.23,193.15 L132.08,185 L128.87,183.37 L128.69,191.68 L155.46,205.27 L155.86,186.16 L140.24,174.4 L142.06,131 L209.55,148.61 Z" id="Shape" fill="#91C499" fill-rule="nonzero"></path>
        </g>
    </g>
</svg>