<svg xmlns="http://www.w3.org/2000/svg" xmlns:xlink="http://www.w3.org/1999/xlink" viewBox="0 0 899.27 261.47"><defs><style>.cls-1{font-size:195.55px;}.cls-1,.cls-12,.cls-2{fill:#fff;}.cls-1,.cls-2{font-family:Raleway-Light, Raleway;}.cls-2{font-size:60px;}.cls-3{letter-spacing:-0.11em;}.cls-4{letter-spacing:-0.01em;}.cls-5{letter-spacing:-0.01em;}.cls-6{letter-spacing:-0.02em;}.cls-7{letter-spacing:-0.03em;}.cls-8{letter-spacing:-0.03em;}.cls-9{letter-spacing:0em;}.cls-10{letter-spacing:0em;}.cls-11{letter-spacing:0em;}.cls-13{fill:url(#linear-gradient);}.cls-14{fill:url(#linear-gradient-2);}.cls-15{fill:#91c499;}</style><linearGradient id="linear-gradient" x1="30.78" y1="165.28" x2="138.52" y2="111.93" gradientUnits="userSpaceOnUse"><stop offset="0" stop-color="#252323"/><stop offset="0.5" stop-color="#2f4858"/><stop offset="0.6" stop-color="#324c5a"/><stop offset="0.69" stop-color="#3b5760"/><stop offset="0.77" stop-color="#496a6a"/><stop offset="0.86" stop-color="#5e8477"/><stop offset="0.94" stop-color="#79a589"/><stop offset="1" stop-color="#91c499"/></linearGradient><linearGradient id="linear-gradient-2" x1="61.95" y1="228.24" x2="169.69" y2="174.89" xlink:href="#linear-gradient"/></defs><title>Asset 21</title><g id="Layer_2" data-name="Layer 2"><g id="Layer_1-2" data-name="Layer 1"><text class="cls-1" transform="translate(270.2 167.19)">Sabblo</text><text class="cls-2" transform="translate(275.62 246.43)"><tspan class="cls-3">T</tspan><tspan class="cls-4" x="29.76" y="0">r</tspan><tspan class="cls-5" x="49.8" y="0">a</tspan><tspan class="cls-6" x="81.18" y="0">v</tspan><tspan x="111.78" y="0">e</tspan><tspan class="cls-7" x="146.76" y="0">l</tspan><tspan class="cls-8" x="160.44" y="0"> </tspan><tspan x="174.24" y="0">with Co</tspan><tspan class="cls-9" x="381.12" y="0">n</tspan><tspan class="cls-10" x="415.38" y="0">fiden</tspan><tspan class="cls-11" x="550.85" y="0">c</tspan><tspan x="583.25" y="0">e</tspan></text><circle class="cls-12" cx="121.56" cy="139.91" r="121.56"/><path class="cls-13" d="M131.69,54.23A13.75,13.75,0,0,0,117.95,68v29.5H35.12v58.72a32.4,32.4,0,0,0,2.36,12,45,45,0,0,0,5.86,10.59,65.42,65.42,0,0,0,8.33,9,97.07,97.07,0,0,0,8.93,7.27q4.09,2.89,8.54,5.47T75.46,204q1.87.92,3,1.41l.63.31-.25-.11,1.46.69h0l1.46-.69-.25.11.63-.31q1.13-.49,3-1.41t6.32-3.49q4.44-2.57,8.54-5.47a97,97,0,0,0,8.93-7.27l.92-.85h0a64.3,64.3,0,0,0,7.4-8.15c.25-.33.49-.66.73-1a80.56,80.56,0,0,0,5.16-8.37,29.61,29.61,0,0,0,2.36-5.91v-24l-9.07,2-3.78.82L57.49,154.21l.15-7.05,55-26.2,8.6-4.1,4.27-2v-8.28L118,110.1h0l-5.38,2.56L50.24,142.38l-.45,21.15L112.62,150l5.35-1.15v7.35a24.75,24.75,0,0,1-1.84,9.27,39.48,39.48,0,0,1-3.52,6.9q-.65,1-1.35,1.94a58.21,58.21,0,0,1-7.38,8A90,90,0,0,1,95.66,189c-2.53,1.79-5.21,3.51-8,5.1-3.51,2-5.13,2.89-5.87,3.25l-1.53.74-1.54-.74c-.74-.36-2.35-1.22-5.86-3.25-2.75-1.59-5.43-3.31-8-5.1a90.11,90.11,0,0,1-8.23-6.71,58.23,58.23,0,0,1-7.38-8,37.72,37.72,0,0,1-4.87-8.83,24.75,24.75,0,0,1-1.84-9.27V105h71.54l3.77-1.79h0l7.49-3.56V68a6.26,6.26,0,0,1,6.25-6.25h.14l.16-7.49Z"/><polygon class="cls-14" points="128.87 201.69 125.58 203.18 109.11 210.68 109.18 207.33 122.11 198.45 125.36 196.22 125.36 192.28 125.37 185.74 117.88 185.74 117.88 192.27 101.77 203.32 101.37 222.44 128.69 210 128.87 201.69 128.87 201.69"/><path class="cls-15" d="M209.55,167,210,145.8l-66.33-35.12,1.76-42.13A13.75,13.75,0,0,0,132,54.23l-.16,7.49h0a6.26,6.26,0,0,1,6.12,6.52l-1.76,42.13-.2,4.72,4.18,2.21,62.25,33-.15,7.05-58.32-15.18-9-2.34-.39,9.27-1.81,43.37-.16,3.94,3.15,2.37,12.55,9.42-.07,3.36-16.14-8.19-3.21-1.63-.18,8.31,26.77,13.59.4-19.11-15.62-11.72,1.81-43.37Z"/></g></g></svg>