<?xml version="1.0" encoding="UTF-8"?>
<svg width="899px" height="244px" viewBox="0 0 899 244" version="1.1" xmlns="http://www.w3.org/2000/svg" xmlns:xlink="http://www.w3.org/1999/xlink">
    <!-- Generator: Sketch 51.2 (57519) - http://www.bohemiancoding.com/sketch -->
    <title>logo-dark</title>
    <desc>Created with Sketch.</desc>
    <defs>
        <path d="M368.7572,36.35765 C364.84618,31.9251612 359.631566,28.3401137 353.1132,25.6024 C346.594834,22.8646863 339.164008,21.49585 330.8205,21.49585 C318.565972,21.49585 309.635945,23.8098352 304.03015,28.437875 C298.424355,33.0659148 295.6215,39.3560436 295.6215,47.30845 C295.6215,51.4802042 296.371101,54.902295 297.870325,57.574825 C299.369549,60.247355 301.683534,62.5613402 304.81235,64.51685 C307.941166,66.4723598 311.949901,68.1671095 316.838675,69.60115 C321.727449,71.0351905 327.496117,72.4692095 334.14485,73.90325 C341.575787,75.4676578 348.257012,77.2275902 354.188725,79.1831 C360.120438,81.1386098 365.172096,83.5829603 369.34385,86.516225 C373.515604,89.4494897 376.709556,93.0019458 378.9258,97.1737 C381.142044,101.345454 382.25015,106.560069 382.25015,112.8177 C382.25015,119.205699 381.011679,124.746227 378.5347,129.43945 C376.057721,134.132673 372.603039,138.043634 368.17055,141.17245 C363.738061,144.301266 358.458264,146.615251 352.331,148.114475 C346.203736,149.613699 339.48992,150.3633 332.18935,150.3633 C310.678742,150.3633 292.101678,143.649484 276.4576,130.22165 L283.30185,119.0753 C285.778829,121.682646 288.744641,124.159588 292.199375,126.5062 C295.654109,128.852812 299.499887,130.906066 303.736825,132.666025 C307.973763,134.425984 312.503959,135.79482 317.32755,136.772575 C322.151141,137.75033 327.23539,138.2392 332.58045,138.2392 C343.661672,138.2392 352.298377,136.251128 358.490825,132.274925 C364.683273,128.298722 367.77945,122.269324 367.77945,114.18655 C367.77945,109.884428 366.899484,106.26679 365.139525,103.333525 C363.379566,100.40026 360.739668,97.8581358 357.21975,95.707075 C353.699832,93.5560142 349.332593,91.6983078 344.1179,90.1339 C338.903207,88.5694922 332.841218,87.0051078 325.93175,85.4407 C318.63118,83.7459249 312.243277,81.9859925 306.76785,80.16085 C301.292423,78.3357075 296.664452,76.0543137 292.8838,73.3166 C289.103148,70.5788863 286.267701,67.2871609 284.377375,63.441325 C282.487049,59.5954891 281.5419,54.8697447 281.5419,49.26395 C281.5419,42.8759514 282.74778,37.1724668 285.159575,32.153325 C287.57137,27.1341832 290.993461,22.9624916 295.42595,19.638125 C299.858439,16.3137584 305.073053,13.7716338 311.06995,12.011675 C317.066847,10.2517162 323.71548,9.37175 331.01605,9.37175 C340.27213,9.37175 348.517739,10.7731777 355.753125,13.576075 C362.988511,16.3789723 369.539371,20.3225246 375.4059,25.40685 L368.7572,36.35765 Z M429.18215,151.1455 C424.358559,151.1455 419.893546,150.330716 415.786975,148.701125 C411.680404,147.071534 408.095357,144.822731 405.031725,141.95465 C401.968093,139.086569 399.588925,135.729661 397.89415,131.883825 C396.199375,128.037989 395.352,123.898889 395.352,119.4664 C395.352,115.033911 396.394923,110.927402 398.4808,107.14675 C400.566677,103.366098 403.499898,100.106964 407.28055,97.36925 C411.061202,94.6315363 415.558807,92.5130992 420.7735,91.013875 C425.988193,89.5146508 431.724269,88.76505 437.9819,88.76505 C443.196593,88.76505 448.47639,89.2213288 453.82145,90.1339 C459.16651,91.0464712 463.924846,92.3501249 468.0966,94.0449 L468.0966,84.85405 C468.0966,75.858705 465.554475,68.7212014 460.47015,63.441325 C455.385825,58.1614486 448.346095,55.52155 439.35075,55.52155 C434.136057,55.52155 428.791077,56.5644729 423.31565,58.65035 C417.840223,60.7362271 412.299695,63.7346304 406.6939,67.64565 L402.0007,58.8459 C415.167799,49.9809223 427.943605,45.5485 440.3285,45.5485 C453.104497,45.5485 463.14263,49.1335475 470.4432,56.30375 C477.74377,63.4739525 481.394,73.3817201 481.394,86.02735 L481.394,131.9816 C481.394,135.631885 483.023567,137.457 486.28275,137.457 L486.28275,149.19 C484.066506,149.581102 482.371756,149.77665 481.19845,149.77665 C477.8089,149.77665 475.169001,148.929275 473.278675,147.2345 C471.388349,145.539725 470.378017,143.193148 470.24765,140.1947 L469.85655,132.17715 C465.163327,138.304414 459.264294,142.997567 452.159275,146.25675 C445.054256,149.515933 437.395291,151.1455 429.18215,151.1455 Z M432.31095,140.9769 C439.220418,140.9769 445.575729,139.673246 451.377075,137.0659 C457.178421,134.458554 461.578252,131.003872 464.5767,126.70175 C465.750006,125.528444 466.629972,124.257382 467.216625,122.888525 C467.803278,121.519668 468.0966,120.248606 468.0966,119.0753 L468.0966,102.45355 C463.664111,100.758775 459.068732,99.4551212 454.310325,98.54255 C449.551918,97.6299788 444.695808,97.1737 439.74185,97.1737 C430.355403,97.1737 422.729029,99.1291804 416.8625,103.0402 C410.995971,106.95122 408.06275,112.100651 408.06275,118.48865 C408.06275,121.617466 408.681985,124.550686 409.920475,127.2884 C411.158965,130.026114 412.853714,132.405282 415.004775,134.425975 C417.155836,136.446668 419.730552,138.043644 422.729,139.21695 C425.727448,140.390256 428.9214,140.9769 432.31095,140.9769 Z M560.0051,151.1455 C551.922326,151.1455 544.524092,149.124837 537.810175,145.08345 C531.096258,141.042063 525.849052,135.827449 522.0684,129.43945 L522.0684,149.19 L510.13985,149.19 L510.13985,6.4385 L523.43725,6.4385 L523.43725,68.6234 C528.000106,61.7139321 533.475451,56.1408129 539.86345,51.903875 C546.251449,47.6669371 553.682274,45.5485 562.15615,45.5485 C569.326353,45.5485 575.746847,47.0477017 581.417825,50.04615 C587.088803,53.0445983 591.912322,57.0533332 595.888525,62.072475 C599.864728,67.0916168 602.928314,72.7625101 605.079375,79.085325 C607.230436,85.4081399 608.30595,91.8938168 608.30595,98.54255 C608.30595,105.712753 607.067479,112.491751 604.5905,118.87975 C602.113521,125.267749 598.724022,130.840868 594.4219,135.599275 C590.119778,140.357682 585.002938,144.138278 579.071225,146.941175 C573.139512,149.744072 566.784201,151.1455 560.0051,151.1455 Z M556.8763,139.4125 C562.482095,139.4125 567.598935,138.271803 572.226975,135.990375 C576.855015,133.708947 580.831158,130.645361 584.155525,126.799525 C587.479892,122.953689 590.087199,118.586449 591.977525,113.697675 C593.867851,108.808901 594.813,103.757243 594.813,98.54255 C594.813,93.1974899 593.933034,88.0480581 592.173075,83.0941 C590.413116,78.1401419 587.936174,73.7403109 584.742175,69.894475 C581.548176,66.0486391 577.702397,62.9850531 573.204725,60.703625 C568.707053,58.4221969 563.78576,57.2815 558.4407,57.2815 C554.399313,57.2815 550.618718,57.9659182 547.0988,59.334775 C543.578882,60.7036318 540.319748,62.5613383 537.3213,64.90795 C534.322852,67.2545617 531.650362,69.959643 529.30375,73.023275 C526.957138,76.086907 525.001658,79.3134497 523.43725,82.703 L523.43725,114.3821 C523.958719,117.902018 525.360147,121.193743 527.641575,124.257375 C529.923003,127.321007 532.660676,129.960906 535.854675,132.17715 C539.048674,134.393394 542.503356,136.153327 546.218825,137.457 C549.934294,138.760673 553.48675,139.4125 556.8763,139.4125 Z M680.65945,151.1455 C672.576676,151.1455 665.178442,149.124837 658.464525,145.08345 C651.750608,141.042063 646.503402,135.827449 642.72275,129.43945 L642.72275,149.19 L630.7942,149.19 L630.7942,6.4385 L644.0916,6.4385 L644.0916,68.6234 C648.654456,61.7139321 654.129801,56.1408129 660.5178,51.903875 C666.905799,47.6669371 674.336624,45.5485 682.8105,45.5485 C689.980703,45.5485 696.401197,47.0477017 702.072175,50.04615 C707.743153,53.0445983 712.566672,57.0533332 716.542875,62.072475 C720.519078,67.0916168 723.582664,72.7625101 725.733725,79.085325 C727.884786,85.4081399 728.9603,91.8938168 728.9603,98.54255 C728.9603,105.712753 727.721829,112.491751 725.24485,118.87975 C722.767871,125.267749 719.378372,130.840868 715.07625,135.599275 C710.774128,140.357682 705.657288,144.138278 699.725575,146.941175 C693.793862,149.744072 687.438551,151.1455 680.65945,151.1455 Z M677.53065,139.4125 C683.136445,139.4125 688.253285,138.271803 692.881325,135.990375 C697.509365,133.708947 701.485508,130.645361 704.809875,126.799525 C708.134242,122.953689 710.741549,118.586449 712.631875,113.697675 C714.522201,108.808901 715.46735,103.757243 715.46735,98.54255 C715.46735,93.1974899 714.587384,88.0480581 712.827425,83.0941 C711.067466,78.1401419 708.590524,73.7403109 705.396525,69.894475 C702.202526,66.0486391 698.356747,62.9850531 693.859075,60.703625 C689.361403,58.4221969 684.44011,57.2815 679.09505,57.2815 C675.053663,57.2815 671.273068,57.9659182 667.75315,59.334775 C664.233232,60.7036318 660.974098,62.5613383 657.97565,64.90795 C654.977202,67.2545617 652.304712,69.959643 649.9581,73.023275 C647.611488,76.086907 645.656008,79.3134497 644.0916,82.703 L644.0916,114.3821 C644.613069,117.902018 646.014497,121.193743 648.295925,124.257375 C650.577353,127.321007 653.315026,129.960906 656.509025,132.17715 C659.703024,134.393394 663.157706,136.153327 666.873175,137.457 C670.588644,138.760673 674.1411,139.4125 677.53065,139.4125 Z M752.0352,6.4385 L765.3326,6.4385 L765.3326,126.1151 C765.3326,129.895752 766.375523,132.861564 768.4614,135.012625 C770.547277,137.163686 773.480498,138.2392 777.26115,138.2392 C778.695191,138.2392 780.38994,138.043652 782.34545,137.65255 C784.30096,137.261448 786.126075,136.739987 787.82085,136.08815 L790.16745,146.8434 C787.690471,147.886339 784.659476,148.733713 781.074375,149.38555 C777.489274,150.037387 774.393096,150.3633 771.78575,150.3633 C765.658486,150.3633 760.834968,148.635959 757.31505,145.181225 C753.795132,141.726491 752.0352,136.870381 752.0352,130.61275 L752.0352,6.4385 Z M848.05025,151.1455 C840.619313,151.1455 833.840314,149.744072 827.71305,146.941175 C821.585786,144.138278 816.273397,140.325091 811.775725,135.5015 C807.278053,130.677909 803.790779,125.072199 801.3138,118.6842 C798.836821,112.296201 797.59835,105.582385 797.59835,98.54255 C797.59835,91.3723475 798.869412,84.5933486 801.411575,78.20535 C803.953738,71.8173514 807.473603,66.2116408 811.971275,61.38805 C816.468947,56.5644592 821.781336,52.718681 827.9086,49.8506 C834.035864,46.982519 840.74968,45.5485 848.05025,45.5485 C855.35082,45.5485 862.097227,46.982519 868.289675,49.8506 C874.482123,52.718681 879.827103,56.5644592 884.324775,61.38805 C888.822447,66.2116408 892.342312,71.8173514 894.884475,78.20535 C897.426638,84.5933486 898.6977,91.3723475 898.6977,98.54255 C898.6977,105.582385 897.459229,112.296201 894.98225,118.6842 C892.505271,125.072199 889.017997,130.677909 884.520325,135.5015 C880.022653,140.325091 874.677673,144.138278 868.485225,146.941175 C862.292777,149.744072 855.481187,151.1455 848.05025,151.1455 Z M811.0913,98.7381 C811.0913,104.474262 812.06904,109.786651 814.02455,114.675425 C815.98006,119.564199 818.619958,123.866256 821.944325,127.581725 C825.268692,131.297194 829.179653,134.197823 833.677325,136.2837 C838.174997,138.369577 842.965925,139.4125 848.05025,139.4125 C853.134575,139.4125 857.925503,138.336986 862.423175,136.185925 C866.920847,134.034864 870.8644,131.101644 874.25395,127.386175 C877.6435,123.670706 880.31599,119.336058 882.2715,114.3821 C884.22701,109.428142 885.20475,104.083162 885.20475,98.347 C885.20475,92.7412053 884.22701,87.4288168 882.2715,82.409675 C880.31599,77.3905332 877.6435,73.0232936 874.25395,69.307825 C870.8644,65.5923564 866.920847,62.6591358 862.423175,60.508075 C857.925503,58.3570142 853.134575,57.2815 848.05025,57.2815 C842.965925,57.2815 838.207589,58.3570142 833.7751,60.508075 C829.342611,62.6591358 825.43165,65.6249478 822.0421,69.4056 C818.65255,73.1862522 815.98006,77.5860832 814.02455,82.605225 C812.06904,87.6243668 811.0913,93.001938 811.0913,98.7381 Z" id="path-1"></path>
        <polygon id="path-2" points="35.58 17.12 20.4 17.12 20.4 56 16.2 56 16.2 17.12 1.02 17.12 1.02 13.4 35.58 13.4"></polygon>
        <path d="M49.86,28.34 C47.0999862,28.4200004 44.7000102,29.1799928 42.66,30.62 C40.6199898,32.0600072 39.1800042,34.0399874 38.34,36.56 L38.34,56 L34.26,56 L34.26,24.74 L38.1,24.74 L38.1,32.24 C39.2600058,29.839988 40.8199902,27.9600068 42.78,26.6 C44.7400098,25.2399932 46.8399888,24.56 49.08,24.56 C49.4000016,24.56 49.659999,24.5799998 49.86,24.62 L49.86,28.34 Z" id="path-3"></path>
        <path d="M62.16,56.6 C60.6799926,56.6 59.3100063,56.3500025 58.05,55.85 C56.7899937,55.3499975 55.6900047,54.6600044 54.75,53.78 C53.8099953,52.8999956 53.0800026,51.8700059 52.56,50.69 C52.0399974,49.5099941 51.78,48.2400068 51.78,46.88 C51.78,45.5199932 52.0999968,44.2600058 52.74,43.1 C53.3800032,41.9399942 54.2799942,40.9400042 55.44,40.1 C56.6000058,39.2599958 57.979992,38.6100023 59.58,38.15 C61.180008,37.6899977 62.9399904,37.46 64.86,37.46 C66.460008,37.46 68.0799918,37.5999986 69.72,37.88 C71.3600082,38.1600014 72.8199936,38.5599974 74.1,39.08 L74.1,36.26 C74.1,33.4999862 73.3200078,31.3100081 71.76,29.69 C70.1999922,28.0699919 68.0400138,27.26 65.28,27.26 C63.679992,27.26 62.0400084,27.5799968 60.36,28.22 C58.6799916,28.8600032 56.9800086,29.779994 55.26,30.98 L53.82,28.28 C57.8600202,25.5599864 61.779981,24.2 65.58,24.2 C69.5000196,24.2 72.5799888,25.299989 74.82,27.5 C77.0600112,29.700011 78.18,32.7399806 78.18,36.62 L78.18,50.72 C78.18,51.8400056 78.679995,52.4 79.68,52.4 L79.68,56 C78.9999966,56.1200006 78.4800018,56.18 78.12,56.18 C77.0799948,56.18 76.2700029,55.9200026 75.69,55.4 C75.1099971,54.8799974 74.8000002,54.1600046 74.76,53.24 L74.64,50.78 C73.1999928,52.6600094 71.3900109,54.099995 69.21,55.1 C67.0299891,56.100005 64.6800126,56.6 62.16,56.6 Z M63.12,53.48 C65.2400106,53.48 67.1899911,53.080004 68.97,52.28 C70.7500089,51.479996 72.0999954,50.4200066 73.02,49.1 C73.3800018,48.7399982 73.6499991,48.3500021 73.83,47.93 C74.0100009,47.5099979 74.1,47.1200018 74.1,46.76 L74.1,41.66 C72.7399932,41.1399974 71.3300073,40.7400014 69.87,40.46 C68.4099927,40.1799986 66.9200076,40.04 65.4,40.04 C62.5199856,40.04 60.180009,40.639994 58.38,41.84 C56.579991,43.040006 55.68,44.6199902 55.68,46.58 C55.68,47.5400048 55.8699981,48.4399958 56.25,49.28 C56.6300019,50.1200042 57.1499967,50.8499969 57.81,51.47 C58.4700033,52.0900031 59.2599954,52.5799982 60.18,52.94 C61.1000046,53.3000018 62.0799948,53.48 63.12,53.48 Z" id="path-4"></path>
        <polygon id="path-5" points="95.04 56 82.32 24.74 86.52 24.74 97.26 52.22 108.06 24.74 112.02 24.74 99.3 56"></polygon>
        <path d="M129.78,56.6 C127.499989,56.6 125.41001,56.1700043 123.51,55.31 C121.60999,54.4499957 119.960007,53.2700075 118.56,51.77 C117.159993,50.2699925 116.070004,48.5400098 115.29,46.58 C114.509996,44.6199902 114.12,42.5200112 114.12,40.28 C114.12,38.079989 114.509996,36.0100097 115.29,34.07 C116.070004,32.1299903 117.149993,30.4300073 118.53,28.97 C119.910007,27.5099927 121.55999,26.3500043 123.48,25.49 C125.40001,24.6299957 127.479989,24.2 129.72,24.2 C132.000011,24.2 134.08999,24.6299957 135.99,25.49 C137.890009,26.3500043 139.519993,27.5199926 140.88,29 C142.240007,30.4800074 143.299996,32.1799904 144.06,34.1 C144.820004,36.0200096 145.2,38.0599892 145.2,40.22 L145.2,41.18 C145.2,41.5000016 145.18,41.7199994 145.14,41.84 L118.38,41.84 C118.500001,43.5200084 118.889997,45.0699929 119.55,46.49 C120.210003,47.9100071 121.059995,49.1399948 122.1,50.18 C123.140005,51.2200052 124.329993,52.0299971 125.67,52.61 C127.010007,53.1900029 128.439992,53.48 129.96,53.48 C130.960005,53.48 131.959995,53.3400014 132.96,53.06 C133.960005,52.7799986 134.879996,52.4000024 135.72,51.92 C136.560004,51.4399976 137.319997,50.8500035 138,50.15 C138.680003,49.4499965 139.199998,48.6800042 139.56,47.84 L143.1,48.8 C142.619998,49.9600058 141.940004,51.0099953 141.06,51.95 C140.179996,52.8900047 139.160006,53.7099965 138,54.41 C136.839994,55.1100035 135.560007,55.6499981 134.16,56.03 C132.759993,56.4100019 131.300008,56.6 129.78,56.6 Z M141.3,38.72 C141.179999,37.0399916 140.790003,35.5100069 140.13,34.13 C139.469997,32.7499931 138.630005,31.560005 137.61,30.56 C136.589995,29.559995 135.410007,28.7800028 134.07,28.22 C132.729993,27.6599972 131.300008,27.38 129.78,27.38 C128.259992,27.38 126.820007,27.6599972 125.46,28.22 C124.099993,28.7800028 122.910005,29.559995 121.89,30.56 C120.869995,31.560005 120.050003,32.759993 119.43,34.16 C118.809997,35.560007 118.440001,37.0799918 118.32,38.72 L141.3,38.72 Z" id="path-6"></path>
        <path d="M151.44,12.2 L155.52,12.2 L155.52,48.92 C155.52,50.0800058 155.839997,50.9899967 156.48,51.65 C157.120003,52.3100033 158.019994,52.64 159.18,52.64 C159.620002,52.64 160.139997,52.5800006 160.74,52.46 C161.340003,52.3399994 161.899997,52.180001 162.42,51.98 L163.14,55.28 C162.379996,55.6000016 161.450006,55.859999 160.35,56.06 C159.249994,56.260001 158.300004,56.36 157.5,56.36 C155.619991,56.36 154.140005,55.8300053 153.06,54.77 C151.979995,53.7099947 151.44,52.2200096 151.44,50.3 L151.44,12.2 Z" id="path-7"></path>
        <path d="M218.1,24.74 L222.12,24.74 L208.68,56 L205.32,56 L198.6,40.04 L191.94,56 L188.58,56 L175.14,24.74 L179.1,24.74 L190.5,51.8 L196.44,37.52 L191.1,24.8 L194.52,24.8 L198.6,35 L202.68,24.8 L206.16,24.8 L200.82,37.52 L206.76,51.8 L218.1,24.74 Z M227.52,56 L227.52,24.74 L231.6,24.74 L231.6,56 L227.52,56 Z M227.52,18.2 L227.52,12.2 L231.6,12.2 L231.6,18.2 L227.52,18.2 Z M255.6,54.5 C255.359999,54.6200006 255.010002,54.779999 254.55,54.98 C254.089998,55.180001 253.560003,55.379999 252.96,55.58 C252.359997,55.780001 251.680004,55.9599992 250.92,56.12 C250.159996,56.2800008 249.360004,56.36 248.52,56.36 C247.639996,56.36 246.800004,56.2400012 246,56 C245.199996,55.7599988 244.500003,55.3900025 243.9,54.89 C243.299997,54.3899975 242.820002,53.7600038 242.46,53 C242.099998,52.2399962 241.92,51.360005 241.92,50.36 L241.92,27.98 L237.6,27.98 L237.6,24.74 L241.92,24.74 L241.92,14.18 L246,14.18 L246,24.74 L253.2,24.74 L253.2,27.98 L246,27.98 L246,49.22 C246.08,50.3800058 246.489996,51.2299973 247.23,51.77 C247.970004,52.3100027 248.819995,52.58 249.78,52.58 C250.940006,52.58 251.959996,52.3900019 252.84,52.01 C253.720004,51.6299981 254.279999,51.3600008 254.52,51.2 L255.6,54.5 Z M286.98,56 L282.9,56 L282.9,38.54 C282.9,34.9799822 282.290006,32.3200088 281.07,30.56 C279.849994,28.7999912 278.060012,27.92 275.7,27.92 C274.539994,27.92 273.390006,28.1499977 272.25,28.61 C271.109994,29.0700023 270.040005,29.699996 269.04,30.5 C268.039995,31.300004 267.170004,32.2399946 266.43,33.32 C265.689996,34.4000054 265.140002,35.5799936 264.78,36.86 L264.78,56 L260.7,56 L260.7,12.2 L264.78,12.2 L264.78,31.82 C266.020006,29.4599882 267.739989,27.6000068 269.94,26.24 C272.140011,24.8799932 274.519987,24.2 277.08,24.2 C278.880009,24.2 280.399994,24.5299967 281.64,25.19 C282.880006,25.8500033 283.899996,26.7699941 284.7,27.95 C285.500004,29.1300059 286.079998,30.5499917 286.44,32.21 C286.800002,33.8700083 286.98,35.69999 286.98,37.7 L286.98,56 Z M309,34.4 C309,31.8399872 309.449995,29.2900127 310.35,26.75 C311.250005,24.2099873 312.559991,21.94001 314.28,19.94 C316.000009,17.93999 318.119987,16.3100063 320.64,15.05 C323.160013,13.7899937 326.019984,13.16 329.22,13.16 C333.020019,13.16 336.269987,14.0199914 338.97,15.74 C341.670014,17.4600086 343.659994,19.6999862 344.94,22.46 L341.64,24.5 C340.959997,23.099993 340.130005,21.9200048 339.15,20.96 C338.169995,19.9999952 337.120006,19.220003 336,18.62 C334.879994,18.019997 333.720006,17.5900013 332.52,17.33 C331.319994,17.0699987 330.140006,16.94 328.98,16.94 C326.419987,16.94 324.16001,17.4599948 322.2,18.5 C320.23999,19.5400052 318.590007,20.8999916 317.25,22.58 C315.909993,24.2600084 314.900003,26.1499895 314.22,28.25 C313.539997,30.3500105 313.2,32.4799892 313.2,34.64 C313.2,37.0000118 313.609996,39.2599892 314.43,41.42 C315.250004,43.5800108 316.369993,45.4899917 317.79,47.15 C319.210007,48.8100083 320.88999,50.1299951 322.83,51.11 C324.77001,52.0900049 326.879989,52.58 329.16,52.58 C330.360006,52.58 331.589994,52.4300015 332.85,52.13 C334.110006,51.8299985 335.329994,51.3500033 336.51,50.69 C337.690006,50.0299967 338.779995,49.2100049 339.78,48.23 C340.780005,47.2499951 341.619997,46.060007 342.3,44.66 L345.78,46.46 C345.099997,48.060008 344.140006,49.4699939 342.9,50.69 C341.659994,51.9100061 340.280008,52.9399958 338.76,53.78 C337.239992,54.6200042 335.630009,55.2599978 333.93,55.7 C332.229991,56.1400022 330.560008,56.36 328.92,56.36 C325.999985,56.36 323.320012,55.7200064 320.88,54.44 C318.439988,53.1599936 316.340009,51.4900103 314.58,49.43 C312.819991,47.3699897 311.450005,45.0300131 310.47,42.41 C309.489995,39.7899869 309,37.1200136 309,34.4 Z M365.46,56.6 C363.179989,56.6 361.100009,56.1700043 359.22,55.31 C357.339991,54.4499957 355.710007,53.2800074 354.33,51.8 C352.949993,50.3199926 351.880004,48.6000098 351.12,46.64 C350.359996,44.6799902 349.98,42.6200108 349.98,40.46 C349.98,38.259989 350.369996,36.1800098 351.15,34.22 C351.930004,32.2599902 353.009993,30.5400074 354.39,29.06 C355.770007,27.5799926 357.399991,26.4000044 359.28,25.52 C361.160009,24.6399956 363.219989,24.2 365.46,24.2 C367.700011,24.2 369.769991,24.6399956 371.67,25.52 C373.57001,26.4000044 375.209993,27.5799926 376.59,29.06 C377.970007,30.5400074 379.049996,32.2599902 379.83,34.22 C380.610004,36.1800098 381,38.259989 381,40.46 C381,42.6200108 380.620004,44.6799902 379.86,46.64 C379.099996,48.6000098 378.030007,50.3199926 376.65,51.8 C375.269993,53.2800074 373.63001,54.4499957 371.73,55.31 C369.829991,56.1700043 367.740011,56.6 365.46,56.6 Z M354.12,40.52 C354.12,42.2800088 354.419997,43.9099925 355.02,45.41 C355.620003,46.9100075 356.429995,48.2299943 357.45,49.37 C358.470005,50.5100057 359.669993,51.3999968 361.05,52.04 C362.430007,52.6800032 363.899992,53 365.46,53 C367.020008,53 368.489993,52.6700033 369.87,52.01 C371.250007,51.3499967 372.459995,50.4500057 373.5,49.31 C374.540005,48.1699943 375.359997,46.8400076 375.96,45.32 C376.560003,43.7999924 376.86,42.1600088 376.86,40.4 C376.86,38.6799914 376.560003,37.0500077 375.96,35.51 C375.359997,33.9699923 374.540005,32.6300057 373.5,31.49 C372.459995,30.3499943 371.250007,29.4500033 369.87,28.79 C368.489993,28.1299967 367.020008,27.8 365.46,27.8 C363.899992,27.8 362.440007,28.1299967 361.08,28.79 C359.719993,29.4500033 358.520005,30.3599942 357.48,31.52 C356.439995,32.6800058 355.620003,34.0299923 355.02,35.57 C354.419997,37.1100077 354.12,38.7599912 354.12,40.52 Z" id="path-8"></path>
        <path d="M411.9,56 L407.82,56 L407.82,38.54 C407.82,34.8199814 407.270006,32.1200084 406.17,30.44 C405.069995,28.7599916 403.380011,27.92 401.1,27.92 C399.899994,27.92 398.700006,28.1399978 397.5,28.58 C396.299994,29.0200022 395.190005,29.639996 394.17,30.44 C393.149995,31.240004 392.240004,32.1899945 391.44,33.29 C390.639996,34.3900055 390.060002,35.5799936 389.7,36.86 L389.7,56 L385.62,56 L385.62,24.74 L389.34,24.74 L389.34,31.82 C390.620006,29.5399886 392.449988,27.700007 394.83,26.3 C397.210012,24.899993 399.799986,24.2 402.6,24.2 C404.320009,24.2 405.779994,24.5199968 406.98,25.16 C408.180006,25.8000032 409.139996,26.6999942 409.86,27.86 C410.580004,29.0200058 411.099998,30.4399916 411.42,32.12 C411.740002,33.8000084 411.9,35.6599898 411.9,37.7 L411.9,56 Z" id="path-9"></path>
        <path d="M421.38,56 L421.38,27.98 L417.06,27.98 L417.06,24.74 L421.38,24.74 L421.38,23.9 C421.38,20.0599808 422.199992,17.0500109 423.84,14.87 C425.480008,12.6899891 427.719986,11.6 430.56,11.6 C431.800006,11.6 432.999994,11.7799982 434.16,12.14 C435.320006,12.5000018 436.319996,12.979997 437.16,13.58 L435.9,16.52 C435.339997,16.0799978 434.650004,15.7400012 433.83,15.5 C433.009996,15.2599988 432.180004,15.14 431.34,15.14 C429.41999,15.14 427.960005,15.8799926 426.96,17.36 C425.959995,18.8400074 425.46,20.979986 425.46,23.78 L425.46,24.74 L434.1,24.74 L434.1,27.98 L425.46,27.98 L425.46,56 L421.38,56 Z M439.68,56 L439.68,24.74 L443.76,24.74 L443.76,56 L439.68,56 Z M439.68,18.2 L439.68,12.2 L443.76,12.2 L443.76,18.2 L439.68,18.2 Z M465.6,56.6 C463.439989,56.6 461.440009,56.1500045 459.6,55.25 C457.759991,54.3499955 456.180007,53.1600074 454.86,51.68 C453.539993,50.1999926 452.510004,48.4900097 451.77,46.55 C451.029996,44.6099903 450.66,42.5800106 450.66,40.46 C450.66,38.259989 451.019996,36.1700099 451.74,34.19 C452.460004,32.2099901 453.449994,30.4800074 454.71,29 C455.970006,27.5199926 457.469991,26.3500043 459.21,25.49 C460.950009,24.6299957 462.85999,24.2 464.94,24.2 C467.580013,24.2 469.91999,24.8899931 471.96,26.27 C474.00001,27.6500069 475.599994,29.3199902 476.76,31.28 L476.76,12.2 L480.84,12.2 L480.84,50.72 C480.84,51.8400056 481.319995,52.4 482.28,52.4 L482.28,56 C481.679997,56.1200006 481.200002,56.18 480.84,56.18 C479.879995,56.18 479.040004,55.8700031 478.32,55.25 C477.599996,54.6299969 477.24,53.8800044 477.24,53 L477.24,49.94 C475.999994,51.9800102 474.320011,53.599994 472.2,54.8 C470.079989,56.000006 467.880011,56.6 465.6,56.6 Z M466.5,53 C467.500005,53 468.569994,52.800002 469.71,52.4 C470.850006,51.999998 471.919995,51.4500035 472.92,50.75 C473.920005,50.0499965 474.769997,49.2300047 475.47,48.29 C476.170004,47.3499953 476.599999,46.3400054 476.76,45.26 L476.76,35.6 C476.359998,34.5199946 475.780004,33.5100047 475.02,32.57 C474.259996,31.6299953 473.390005,30.8000036 472.41,30.08 C471.429995,29.3599964 470.380006,28.800002 469.26,28.4 C468.139994,27.999998 467.040005,27.8 465.96,27.8 C464.279992,27.8 462.760007,28.1599964 461.4,28.88 C460.039993,29.6000036 458.870005,30.5499941 457.89,31.73 C456.909995,32.9100059 456.160003,34.2599924 455.64,35.78 C455.119997,37.3000076 454.86,38.859992 454.86,40.46 C454.86,42.1400084 455.159997,43.7399924 455.76,45.26 C456.360003,46.7800076 457.179995,48.1099943 458.22,49.25 C459.260005,50.3900057 460.489993,51.2999966 461.91,51.98 C463.330007,52.6600034 464.859992,53 466.5,53 Z M503.58,56.6 C501.299989,56.6 499.21001,56.1700043 497.31,55.31 C495.409991,54.4499957 493.760007,53.2700075 492.36,51.77 C490.959993,50.2699925 489.870004,48.5400098 489.09,46.58 C488.309996,44.6199902 487.92,42.5200112 487.92,40.28 C487.92,38.079989 488.309996,36.0100097 489.09,34.07 C489.870004,32.1299903 490.949993,30.4300073 492.33,28.97 C493.710007,27.5099927 495.35999,26.3500043 497.28,25.49 C499.20001,24.6299957 501.279989,24.2 503.52,24.2 C505.800011,24.2 507.889991,24.6299957 509.79,25.49 C511.69001,26.3500043 513.319993,27.5199926 514.68,29 C516.040007,30.4800074 517.099996,32.1799904 517.86,34.1 C518.620004,36.0200096 519,38.0599892 519,40.22 L519,41.18 C519,41.5000016 518.98,41.7199994 518.94,41.84 L492.18,41.84 C492.300001,43.5200084 492.689997,45.0699929 493.35,46.49 C494.010003,47.9100071 494.859995,49.1399948 495.9,50.18 C496.940005,51.2200052 498.129993,52.0299971 499.47,52.61 C500.810007,53.1900029 502.239992,53.48 503.76,53.48 C504.760005,53.48 505.759995,53.3400014 506.76,53.06 C507.760005,52.7799986 508.679996,52.4000024 509.52,51.92 C510.360004,51.4399976 511.119997,50.8500035 511.8,50.15 C512.480003,49.4499965 512.999998,48.6800042 513.36,47.84 L516.9,48.8 C516.419998,49.9600058 515.740004,51.0099953 514.86,51.95 C513.979996,52.8900047 512.960006,53.7099965 511.8,54.41 C510.639994,55.1100035 509.360007,55.6499981 507.96,56.03 C506.559993,56.4100019 505.100008,56.6 503.58,56.6 Z M515.1,38.72 C514.979999,37.0399916 514.590003,35.5100069 513.93,34.13 C513.269997,32.7499931 512.430005,31.560005 511.41,30.56 C510.389995,29.559995 509.210007,28.7800028 507.87,28.22 C506.529993,27.6599972 505.100008,27.38 503.58,27.38 C502.059992,27.38 500.620007,27.6599972 499.26,28.22 C497.899993,28.7800028 496.710005,29.559995 495.69,30.56 C494.669995,31.560005 493.850003,32.759993 493.23,34.16 C492.609997,35.560007 492.240001,37.0799918 492.12,38.72 L515.1,38.72 Z M551.58,56 L547.5,56 L547.5,38.54 C547.5,34.8199814 546.950006,32.1200084 545.85,30.44 C544.749995,28.7599916 543.060011,27.92 540.78,27.92 C539.579994,27.92 538.380006,28.1399978 537.18,28.58 C535.979994,29.0200022 534.870005,29.639996 533.85,30.44 C532.829995,31.240004 531.920004,32.1899945 531.12,33.29 C530.319996,34.3900055 529.740002,35.5799936 529.38,36.86 L529.38,56 L525.3,56 L525.3,24.74 L529.02,24.74 L529.02,31.82 C530.300006,29.5399886 532.129988,27.700007 534.51,26.3 C536.890012,24.899993 539.479986,24.2 542.28,24.2 C544.000009,24.2 545.459994,24.5199968 546.66,25.16 C547.860006,25.8000032 548.819996,26.6999942 549.54,27.86 C550.260004,29.0200058 550.779998,30.4399916 551.1,32.12 C551.420002,33.8000084 551.58,35.6599898 551.58,37.7 L551.58,56 Z" id="path-10"></path>
        <path d="M553.19,40.28 C553.19,38.079989 553.569996,36.0000098 554.33,34.04 C555.090004,32.0799902 556.159993,30.3700073 557.54,28.91 C558.920007,27.4499927 560.56999,26.3000042 562.49,25.46 C564.41001,24.6199958 566.529988,24.2 568.85,24.2 C571.810015,24.2 574.389989,24.8699933 576.59,26.21 C578.790011,27.5500067 580.449994,29.3599886 581.57,31.64 L577.61,32.9 C576.729996,31.299992 575.500008,30.0500045 573.92,29.15 C572.339992,28.2499955 570.59001,27.8 568.67,27.8 C567.069992,27.8 565.580007,28.1199968 564.2,28.76 C562.819993,29.4000032 561.620005,30.2699945 560.6,31.37 C559.579995,32.4700055 558.780003,33.7799924 558.2,35.3 C557.619997,36.8200076 557.33,38.479991 557.33,40.28 C557.33,42.0400088 557.629997,43.6999922 558.23,45.26 C558.830003,46.8200078 559.649995,48.1699943 560.69,49.31 C561.730005,50.4500057 562.939993,51.3499967 564.32,52.01 C565.700007,52.6700033 567.169992,53 568.73,53 C569.730005,53 570.719995,52.8600014 571.7,52.58 C572.680005,52.2999986 573.589996,51.9100025 574.43,51.41 C575.270004,50.9099975 575.989997,50.3400032 576.59,49.7 C577.190003,49.0599968 577.609999,48.3800036 577.85,47.66 L581.87,48.86 C581.429998,49.9800056 580.790004,51.0099953 579.95,51.95 C579.109996,52.8900047 578.120006,53.7099965 576.98,54.41 C575.839994,55.1100035 574.580007,55.6499981 573.2,56.03 C571.819993,56.4100019 570.390007,56.6 568.91,56.6 C566.629989,56.6 564.53001,56.1700043 562.61,55.31 C560.68999,54.4499957 559.030007,53.2700075 557.63,51.77 C556.229993,50.2699925 555.140004,48.5400098 554.36,46.58 C553.579996,44.6199902 553.19,42.5200112 553.19,40.28 Z" id="path-11"></path>
        <path d="M601.25,56.6 C598.969989,56.6 596.88001,56.1700043 594.98,55.31 C593.079991,54.4499957 591.430007,53.2700075 590.03,51.77 C588.629993,50.2699925 587.540004,48.5400098 586.76,46.58 C585.979996,44.6199902 585.59,42.5200112 585.59,40.28 C585.59,38.079989 585.979996,36.0100097 586.76,34.07 C587.540004,32.1299903 588.619993,30.4300073 590,28.97 C591.380007,27.5099927 593.02999,26.3500043 594.95,25.49 C596.87001,24.6299957 598.949989,24.2 601.19,24.2 C603.470011,24.2 605.559991,24.6299957 607.46,25.49 C609.36001,26.3500043 610.989993,27.5199926 612.35,29 C613.710007,30.4800074 614.769996,32.1799904 615.53,34.1 C616.290004,36.0200096 616.67,38.0599892 616.67,40.22 L616.67,41.18 C616.67,41.5000016 616.65,41.7199994 616.61,41.84 L589.85,41.84 C589.970001,43.5200084 590.359997,45.0699929 591.02,46.49 C591.680003,47.9100071 592.529995,49.1399948 593.57,50.18 C594.610005,51.2200052 595.799993,52.0299971 597.14,52.61 C598.480007,53.1900029 599.909992,53.48 601.43,53.48 C602.430005,53.48 603.429995,53.3400014 604.43,53.06 C605.430005,52.7799986 606.349996,52.4000024 607.19,51.92 C608.030004,51.4399976 608.789997,50.8500035 609.47,50.15 C610.150003,49.4499965 610.669998,48.6800042 611.03,47.84 L614.57,48.8 C614.089998,49.9600058 613.410004,51.0099953 612.53,51.95 C611.649996,52.8900047 610.630006,53.7099965 609.47,54.41 C608.309994,55.1100035 607.030007,55.6499981 605.63,56.03 C604.229993,56.4100019 602.770008,56.6 601.25,56.6 Z M612.77,38.72 C612.649999,37.0399916 612.260003,35.5100069 611.6,34.13 C610.939997,32.7499931 610.100005,31.560005 609.08,30.56 C608.059995,29.559995 606.880007,28.7800028 605.54,28.22 C604.199993,27.6599972 602.770008,27.38 601.25,27.38 C599.729992,27.38 598.290007,27.6599972 596.93,28.22 C595.569993,28.7800028 594.380005,29.559995 593.36,30.56 C592.339995,31.560005 591.520003,32.759993 590.9,34.16 C590.279997,35.560007 589.910001,37.0799918 589.79,38.72 L612.77,38.72 Z" id="path-12"></path>
        <linearGradient x1="-4.48486101%" y1="73.0255803%" x2="106.851297%" y2="37.9430525%" id="linearGradient-13">
            <stop stop-color="#252323" offset="0%"></stop>
            <stop stop-color="#2F4858" offset="50%"></stop>
            <stop stop-color="#324C5A" offset="60%"></stop>
            <stop stop-color="#3B5760" offset="69%"></stop>
            <stop stop-color="#496A6A" offset="77%"></stop>
            <stop stop-color="#5E8477" offset="86%"></stop>
            <stop stop-color="#79A589" offset="94%"></stop>
            <stop stop-color="#91C499" offset="100%"></stop>
        </linearGradient>
        <linearGradient x1="-143.345455%" y1="115.803815%" x2="248.436364%" y2="-29.5640327%" id="linearGradient-14">
            <stop stop-color="#252323" offset="0%"></stop>
            <stop stop-color="#2F4858" offset="50%"></stop>
            <stop stop-color="#324C5A" offset="60%"></stop>
            <stop stop-color="#3B5760" offset="69%"></stop>
            <stop stop-color="#496A6A" offset="77%"></stop>
            <stop stop-color="#5E8477" offset="86%"></stop>
            <stop stop-color="#79A589" offset="94%"></stop>
            <stop stop-color="#91C499" offset="100%"></stop>
        </linearGradient>
    </defs>
    <g id="Page-1" stroke="none" stroke-width="1" fill="none" fill-rule="evenodd">
        <g id="logo-dark">
            <g id="Sabblo">
                <use fill="#000000" xlink:href="#path-1"></use>
                <use fill="#FFFFFF" xlink:href="#path-1"></use>
            </g>
            <g id="Group" transform="translate(275.620000, 172.430000)">
                <g id="T">
                    <use fill="#000000" xlink:href="#path-2"></use>
                    <use fill="#FFFFFF" xlink:href="#path-2"></use>
                </g>
                <g id="r">
                    <use fill="#000000" xlink:href="#path-3"></use>
                    <use fill="#FFFFFF" xlink:href="#path-3"></use>
                </g>
                <g id="a">
                    <use fill="#000000" xlink:href="#path-4"></use>
                    <use fill="#FFFFFF" xlink:href="#path-4"></use>
                </g>
                <g id="v">
                    <use fill="#000000" xlink:href="#path-5"></use>
                    <use fill="#FFFFFF" xlink:href="#path-5"></use>
                </g>
                <g id="e">
                    <use fill="#000000" xlink:href="#path-6"></use>
                    <use fill="#FFFFFF" xlink:href="#path-6"></use>
                </g>
                <g id="l">
                    <use fill="#000000" xlink:href="#path-7"></use>
                    <use fill="#FFFFFF" xlink:href="#path-7"></use>
                </g>
                <g id="with-Co">
                    <use fill="#000000" xlink:href="#path-8"></use>
                    <use fill="#FFFFFF" xlink:href="#path-8"></use>
                </g>
                <g id="n">
                    <use fill="#000000" xlink:href="#path-9"></use>
                    <use fill="#FFFFFF" xlink:href="#path-9"></use>
                </g>
                <g id="fiden">
                    <use fill="#000000" xlink:href="#path-10"></use>
                    <use fill="#FFFFFF" xlink:href="#path-10"></use>
                </g>
                <g id="c">
                    <use fill="#000000" xlink:href="#path-11"></use>
                    <use fill="#FFFFFF" xlink:href="#path-11"></use>
                </g>
                <g id="e">
                    <use fill="#000000" xlink:href="#path-12"></use>
                    <use fill="#FFFFFF" xlink:href="#path-12"></use>
                </g>
            </g>
            <circle id="Oval" fill="#FFFFFF" fill-rule="nonzero" cx="121.56" cy="121.91" r="121.56"></circle>
            <path d="M131.69,36.23 C128.041538,36.2326496 124.543708,37.6852222 121.96667,40.2678867 C119.389633,42.8505511 117.944692,46.3515413 117.95,50 L117.95,79.5 L35.12,79.5 L35.12,138.22 C35.1377587,142.333547 35.9386912,146.406085 37.48,150.22 C38.9475404,153.997777 40.9186982,157.559989 43.34,160.81 C45.8287386,164.064207 48.6176554,167.077442 51.67,169.81 C54.5001811,172.40791 57.4820931,174.835514 60.6,177.08 C63.3266667,179.006667 66.1733333,180.83 69.14,182.55 C72.1066667,184.27 74.2133333,185.42 75.46,186 C76.7066667,186.613333 77.7066667,187.083333 78.46,187.41 L79.09,187.72 L78.84,187.61 L80.3,188.3 L81.76,187.61 L81.51,187.72 L82.14,187.41 C82.8933333,187.083333 83.8933333,186.613333 85.14,186 C86.3866667,185.386667 88.4933333,184.223333 91.46,182.51 C94.42,180.796667 97.2666667,178.973333 100,177.04 C103.118007,174.795645 106.099927,172.368035 108.93,169.77 L109.85,168.92 C112.545108,166.419866 115.020846,163.693209 117.25,160.77 C117.5,160.44 117.74,160.11 117.98,159.77 C119.868821,157.087668 121.59203,154.292462 123.14,151.4 C124.136693,149.520501 124.927928,147.53906 125.5,145.49 L125.5,121.49 L116.43,123.49 L112.65,124.31 L57.49,136.21 L57.64,129.16 L112.64,102.96 L121.24,98.86 L125.51,96.86 L125.51,88.58 L118,92.1 L112.62,94.66 L50.24,124.38 L49.79,145.53 L112.62,132 L117.97,130.85 L117.97,138.2 C117.957799,141.379503 117.333078,144.526874 116.13,147.47 C115.185679,149.879822 114.006673,152.190943 112.61,154.37 C112.176667,155.036667 111.726667,155.683333 111.26,156.31 C109.055253,159.201305 106.584456,161.879677 103.88,164.31 C101.273794,166.699534 98.5290366,168.933406 95.66,171 C93.13,172.79 90.45,174.51 87.66,176.1 C84.15,178.1 82.53,178.99 81.79,179.35 L80.26,180.09 L78.72,179.35 C77.98,178.99 76.37,178.13 72.86,176.1 C70.11,174.51 67.43,172.79 64.86,171 C61.987151,168.927058 59.2390474,166.686502 56.63,164.29 C53.925627,161.859593 51.4548364,159.181229 49.25,156.29 C47.2387796,153.577899 45.600813,150.608033 44.38,147.46 C43.1769217,144.516874 42.552201,141.369503 42.54,138.19 L42.54,87 L114.08,87 L117.85,85.21 L125.34,81.65 L125.34,50 C125.345506,46.5505035 128.140504,43.755506 131.59,43.75 L131.73,43.75 L131.89,36.26 L131.69,36.23 Z" id="Shape" fill="url(#linearGradient-13)" fill-rule="nonzero"></path>
            <polygon id="Shape" fill="url(#linearGradient-14)" fill-rule="nonzero" points="128.87 183.69 125.58 185.18 109.11 192.68 109.18 189.33 122.11 180.45 125.36 178.22 125.36 174.28 125.37 167.74 117.88 167.74 117.88 174.27 101.77 185.32 101.37 204.44 128.69 192 128.87 183.69"></polygon>
            <path d="M209.55,149 L210,127.8 L143.67,92.68 L145.43,50.55 C145.584008,46.8604537 144.247483,43.2640309 141.721352,40.570495 C139.195222,37.8769591 135.691832,36.3127277 132,36.23 L131.84,43.72 C133.521877,43.7561548 135.118423,44.4677177 136.269744,45.6942891 C137.421066,46.9208605 138.030259,48.5592019 137.96,50.24 L136.2,92.37 L136,97.09 L140.18,99.3 L202.43,132.3 L202.28,139.35 L143.96,124.17 L134.96,121.83 L134.57,131.1 L132.76,174.47 L132.6,178.41 L135.75,180.78 L148.3,190.2 L148.23,193.56 L132.09,185.37 L128.88,183.74 L128.7,192.05 L155.47,205.64 L155.87,186.53 L140.25,174.81 L142.06,131.44 L209.55,149 Z" id="Shape" fill="#91C499" fill-rule="nonzero"></path>
        </g>
    </g>
</svg>