<svg xmlns="http://www.w3.org/2000/svg" xmlns:xlink="http://www.w3.org/1999/xlink" viewBox="0 0 888.92 219.1"><defs><style>.cls-1{font-size:195.55px;fill:#fff;font-family:Raleway-Black, Raleway;}.cls-2{letter-spacing:0em;}.cls-3{fill:#c1e5c4;}.cls-4{fill:#91c499;}.cls-5{fill:url(#linear-gradient);}.cls-6{fill:url(#linear-gradient-2);}</style><linearGradient id="linear-gradient" x1="158.82" y1="106.35" x2="98.62" y2="106.35" gradientUnits="userSpaceOnUse"><stop offset="0" stop-color="#2f4858"/><stop offset="1" stop-color="#252323"/></linearGradient><linearGradient id="linear-gradient-2" x1="102.23" y1="106.35" x2="44.38" y2="106.35" xlink:href="#linear-gradient"/></defs><title>Asset 11</title><g id="Layer_2" data-name="Layer 2"><g id="Layer_1-2" data-name="Layer 1"><text class="cls-1" transform="translate(209.59 173.34)"><tspan class="cls-2">S</tspan><tspan x="119.68" y="0">abblo</tspan></text><path class="cls-3" d="M178.48,170.78l11.9-23.62-55.9-75.35,24.68-46.58A17.19,17.19,0,1,0,128.46,9.78L105.72,57.33,11.9,57.25,0,80.87,84.83,101,61.42,150,37.3,153.75,26.55,175.1l37.52.68L87,205.52l10.75-21.34L86.4,162.54l25.4-47.94Z"/><path class="cls-4" d="M178.48,170.78l11.9-23.62-55.9-75.35,24.68-46.58a17.19,17.19,0,0,0-7.45-23.39L64.07,175.78,87,205.52l10.75-21.34L86.4,162.54l25.4-47.94Z"/><path class="cls-5" d="M138,57.26H101.36v98.17c2.79-1.32,0,0,1.65-.81q1-.44,2.7-1.27t5.7-3.15q4-2.32,7.7-4.93a87.49,87.49,0,0,0,8.05-6.55,59,59,0,0,0,7.51-8.11,40.56,40.56,0,0,0,5.28-9.55,29.22,29.22,0,0,0,2.13-10.85V57.26Z"/><path class="cls-6" d="M64.71,57.26h36.65v98.17c-2.79-1.32,0,0-1.65-.81q-1-.44-2.7-1.27t-5.7-3.15q-4-2.32-7.7-4.93a87.49,87.49,0,0,1-8.05-6.55,59,59,0,0,1-7.51-8.11,40.56,40.56,0,0,1-5.28-9.55,29.22,29.22,0,0,1-2.13-10.85V57.26Z"/></g></g></svg>