<?xml version="1.0" encoding="UTF-8"?>
<svg width="259px" height="511px" viewBox="0 0 259 511" version="1.1" xmlns="http://www.w3.org/2000/svg" xmlns:xlink="http://www.w3.org/1999/xlink">
    <!-- Generator: Sketch 51.2 (57519) - http://www.bohemiancoding.com/sketch -->
    <title>Group 26</title>
    <desc>Created with Sketch.</desc>
    <defs>
        <linearGradient x1="50%" y1="50%" x2="50%" y2="100%" id="linearGradient-1">
            <stop stop-color="#FFFFFF" offset="0%"></stop>
            <stop stop-color="#FAFBFC" offset="100%"></stop>
        </linearGradient>
        <rect id="path-2" x="0" y="0" width="239" height="491" rx="25.377462"></rect>
        <filter x="-9.4%" y="-3.0%" width="120.5%" height="110.0%" filterUnits="objectBoundingBox" id="filter-4">
            <feOffset dx="0" dy="1" in="SourceAlpha" result="shadowOffsetOuter1"></feOffset>
            <feGaussianBlur stdDeviation="0.5" in="shadowOffsetOuter1" result="shadowBlurOuter1"></feGaussianBlur>
            <feColorMatrix values="0 0 0 0 0   0 0 0 0 0   0 0 0 0 0  0 0 0 0.08 0" type="matrix" in="shadowBlurOuter1" result="shadowMatrixOuter1"></feColorMatrix>
            <feOffset dx="0" dy="2" in="SourceAlpha" result="shadowOffsetOuter2"></feOffset>
            <feGaussianBlur stdDeviation="2.5" in="shadowOffsetOuter2" result="shadowBlurOuter2"></feGaussianBlur>
            <feColorMatrix values="0 0 0 0 0   0 0 0 0 0   0 0 0 0 0  0 0 0 0.04 0" type="matrix" in="shadowBlurOuter2" result="shadowMatrixOuter2"></feColorMatrix>
            <feOffset dx="2" dy="7" in="SourceAlpha" result="shadowOffsetOuter3"></feOffset>
            <feGaussianBlur stdDeviation="5" in="shadowOffsetOuter3" result="shadowBlurOuter3"></feGaussianBlur>
            <feColorMatrix values="0 0 0 0 0   0 0 0 0 0   0 0 0 0 0  0 0 0 0.04 0" type="matrix" in="shadowBlurOuter3" result="shadowMatrixOuter3"></feColorMatrix>
            <feMerge>
                <feMergeNode in="shadowMatrixOuter1"></feMergeNode>
                <feMergeNode in="shadowMatrixOuter2"></feMergeNode>
                <feMergeNode in="shadowMatrixOuter3"></feMergeNode>
            </feMerge>
        </filter>
        <filter x="-9.0%" y="-2.7%" width="119.7%" height="109.6%" filterUnits="objectBoundingBox" id="filter-5">
            <feMorphology radius="1" operator="erode" in="SourceAlpha" result="shadowSpreadInner1"></feMorphology>
            <feGaussianBlur stdDeviation="1" in="shadowSpreadInner1" result="shadowBlurInner1"></feGaussianBlur>
            <feOffset dx="0" dy="1" in="shadowBlurInner1" result="shadowOffsetInner1"></feOffset>
            <feComposite in="shadowOffsetInner1" in2="SourceAlpha" operator="arithmetic" k2="-1" k3="1" result="shadowInnerInner1"></feComposite>
            <feColorMatrix values="0 0 0 0 1   0 0 0 0 1   0 0 0 0 1  0 0 0 1 0" type="matrix" in="shadowInnerInner1" result="shadowMatrixInner1"></feColorMatrix>
            <feGaussianBlur stdDeviation="5" in="SourceAlpha" result="shadowBlurInner2"></feGaussianBlur>
            <feOffset dx="0" dy="-5" in="shadowBlurInner2" result="shadowOffsetInner2"></feOffset>
            <feComposite in="shadowOffsetInner2" in2="SourceAlpha" operator="arithmetic" k2="-1" k3="1" result="shadowInnerInner2"></feComposite>
            <feColorMatrix values="0 0 0 0 0   0 0 0 0 0   0 0 0 0 0  0 0 0 0.08 0" type="matrix" in="shadowInnerInner2" result="shadowMatrixInner2"></feColorMatrix>
            <feMerge>
                <feMergeNode in="shadowMatrixInner1"></feMergeNode>
                <feMergeNode in="shadowMatrixInner2"></feMergeNode>
            </feMerge>
        </filter>
        <linearGradient x1="0%" y1="0%" x2="100%" y2="100%" id="linearGradient-6">
            <stop stop-color="#FFFFFF" offset="0%"></stop>
            <stop stop-color="#FEFEFE" offset="100%"></stop>
        </linearGradient>
        <rect id="path-7" x="10.1829574" y="48.0195599" width="218.035088" height="386.557457" rx="6"></rect>
        <rect id="path-9" x="11.3809524" y="49.2200489" width="215.639098" height="384.156479" rx="6"></rect>
        <linearGradient x1="-4.49101796%" y1="73.0081515%" x2="106.741689%" y2="37.9305811%" id="linearGradient-11">
            <stop stop-color="#252323" offset="0%"></stop>
            <stop stop-color="#2F4858" offset="50%"></stop>
            <stop stop-color="#324C5A" offset="60%"></stop>
            <stop stop-color="#3B5760" offset="69%"></stop>
            <stop stop-color="#496A6A" offset="77%"></stop>
            <stop stop-color="#5E8477" offset="86%"></stop>
            <stop stop-color="#79A589" offset="94%"></stop>
            <stop stop-color="#91C499" offset="100%"></stop>
        </linearGradient>
        <linearGradient x1="-143.309091%" y1="115.803815%" x2="248.472727%" y2="-29.5640327%" id="linearGradient-12">
            <stop stop-color="#252323" offset="0%"></stop>
            <stop stop-color="#2F4858" offset="50%"></stop>
            <stop stop-color="#324C5A" offset="60%"></stop>
            <stop stop-color="#3B5760" offset="69%"></stop>
            <stop stop-color="#496A6A" offset="77%"></stop>
            <stop stop-color="#5E8477" offset="86%"></stop>
            <stop stop-color="#79A589" offset="94%"></stop>
            <stop stop-color="#91C499" offset="100%"></stop>
        </linearGradient>
    </defs>
    <g id="Page-2" stroke="none" stroke-width="1" fill="none" fill-rule="evenodd">
        <g id="Group-26" transform="translate(8.000000, 3.000000)">
            <g id="Phone-Copy-11">
                <mask id="mask-3" fill="white">
                    <use xlink:href="#path-2"></use>
                </mask>
                <g id="Body">
                    <use fill="black" fill-opacity="1" filter="url(#filter-4)" xlink:href="#path-2"></use>
                    <use fill="url(#linearGradient-1)" fill-rule="evenodd" xlink:href="#path-2"></use>
                    <use fill="black" fill-opacity="1" filter="url(#filter-5)" xlink:href="#path-2"></use>
                </g>
                <mask id="mask-8" fill="white">
                    <use xlink:href="#path-7"></use>
                </mask>
                <rect stroke-opacity="0.04" stroke="#000000" stroke-width="0.84" x="9.76295739" y="47.5995599" width="218.875088" height="387.397457" rx="6"></rect>
                <mask id="mask-10" fill="white">
                    <use xlink:href="#path-9"></use>
                </mask>
                <use id="DESIGN-HERE" fill="#FFFFFF" xlink:href="#path-9"></use>
            </g>
            <g id="Asset-24" transform="translate(50.000000, 178.000000)" fill-rule="nonzero">
                <path d="M77.248,0 C71.1791145,0.00441213222 66.2604121,4.92311453 66.256,10.992 L66.256,34.592 L0,34.592 L0,81.6 C0.0142069985,84.8908375 0.654952923,88.1488677 1.888,91.2 C3.0620323,94.2222217 4.63895854,97.0719911 6.576,99.672 C8.56699088,102.275365 10.7981244,104.685954 13.24,106.872 C15.5041449,108.950328 17.8896745,110.892411 20.384,112.688 C22.5653333,114.229333 24.8426667,115.688 27.216,117.064 C29.5893333,118.44 31.2746667,119.370667 32.272,119.856 C33.2693333,120.346667 34.0693333,120.722667 34.672,120.984 L35.176,121.232 L34.976,121.144 L36.144,121.696 L37.312,121.144 L37.112,121.232 L37.616,120.984 C38.2186667,120.722667 39.0186667,120.346667 40.016,119.856 C41.0133333,119.365333 42.6986667,118.434667 45.072,117.064 C47.44,115.693333 49.7173333,114.234667 51.904,112.688 C54.3984057,110.892516 56.7839413,108.950428 59.048,106.872 L59.784,106.192 C61.9400867,104.191893 63.9206765,102.010567 65.704,99.672 C65.904,99.408 66.096,99.144 66.288,98.872 C67.7938643,96.7231265 69.1670872,94.4842924 70.4,92.168 C71.1973546,90.6644008 71.8303428,89.0792483 72.288,87.44 L72.288,68.24 L65.032,69.84 L62.008,70.496 L17.888,80 L18.008,74.36 L62.008,53.4 L68.888,50.12 L72.304,48.52 L72.304,41.856 L66.312,44.696 L62.008,46.744 L12.096,70.52 L11.736,87.44 L61.992,76.608 L66.272,75.688 L66.272,81.6 C66.2581398,84.1328281 65.7584401,86.6394738 64.8,88.984 C64.0445434,90.9118577 63.1013381,92.7607543 61.984,94.504 C61.6373333,95.0373333 61.2773333,95.5546667 60.904,96.056 C59.1402028,98.3690439 57.1635644,100.511741 55,102.456 C52.9128959,104.373356 50.7144037,106.165809 48.416,107.824 C46.392,109.256 44.248,110.632 42.016,111.904 C39.208,113.504 37.912,114.216 37.32,114.504 L36.096,115.096 L34.864,114.504 C34.272,114.216 32.984,113.528 30.176,111.904 C27.976,110.632 25.832,109.256 23.776,107.824 C21.5008411,106.145272 19.3264177,104.334143 17.264,102.4 C15.1005016,100.455674 13.1238691,98.3129835 11.36,96 C9.7510237,93.8303192 8.44065044,91.4544268 7.464,88.936 C6.5115599,86.6064415 6.01197486,84.1166617 5.992,81.6 L5.992,40.584 L63.2,40.584 L66.216,39.152 L72.208,36.304 L72.208,10.992 C72.2124048,8.23240283 74.4484028,5.99640479 77.208,5.992 L77.32,5.992 L77.488,0 L77.248,0 Z" id="Shape" fill="url(#linearGradient-11)"></path>
                <polygon id="Shape" fill="url(#linearGradient-12)" points="74.992 117.968 72.368 119.16 59.184 125.168 59.248 122.48 69.592 115.376 72.192 113.592 72.192 110.44 72.192 105.208 66.2 105.208 66.2 110.432 53.32 119.28 52.992 134.568 74.848 124.616 74.992 117.968"></polygon>
                <path d="M139.544,90.176 L139.904,73.256 L86.84,45.16 L88.248,11.456 C88.3712267,8.50164849 87.2998387,5.62209174 85.2754776,3.46678677 C83.2511164,1.31148179 80.4442714,0.0619458332 77.488,0 L77.36,5.992 C78.7040561,6.02098074 79.980022,6.58912932 80.9008414,7.56862837 C81.8216608,8.54812742 82.3100012,9.85671649 82.256,11.2 L80.848,44.904 L80.688,48.68 L84,50.456 L133.8,76.856 L133.68,82.496 L87.056,70.32 L79.856,68.448 L79.544,75.864 L78.096,110.56 L77.968,113.712 L80.488,115.608 L90.528,123.144 L90.472,125.832 L77.6,119.272 L75.032,117.968 L74.888,124.616 L96.304,135.488 L96.624,120.2 L84.128,110.824 L85.576,76.128 L139.544,90.176 Z" id="Shape" fill="#91C499"></path>
            </g>
        </g>
    </g>
</svg>